<?xml version="1.0" encoding="UTF-8"?>
<svg version="1.1" xmlns="http://www.w3.org/2000/svg" width="2000" height="555">
<path d="M0 0 C6.03127738 6.29542092 7.95582409 12.56190997 9.578125 20.921875 C10.00222656 20.37917969 10.42632812 19.83648437 10.86328125 19.27734375 C11.44980469 18.56191406 12.03632813 17.84648438 12.640625 17.109375 C13.20910156 16.40167969 13.77757812 15.69398437 14.36328125 14.96484375 C20.50362798 9.30099659 27.6620325 9.322676 35.56640625 9.578125 C45.02289953 10.20187485 52.90062119 14.27030324 59.578125 20.921875 C63.86413426 26.34480461 66.72407642 30.8821978 66.703125 37.921875 C66.70570313 38.788125 66.70828125 39.654375 66.7109375 40.546875 C66.578125 42.921875 66.578125 42.921875 65.578125 45.921875 C66.24199219 45.64472656 66.90585938 45.36757812 67.58984375 45.08203125 C68.47285156 44.71980469 69.35585937 44.35757813 70.265625 43.984375 C71.57080078 43.44490234 71.57080078 43.44490234 72.90234375 42.89453125 C81.73557633 39.68361897 89.99389207 40.39501961 98.578125 43.921875 C107.67517629 48.62421552 113.38210261 55.56606995 116.8828125 65.15625 C119.2312074 74.49705667 117.82911214 83.37681638 113.578125 91.921875 C111.328125 95.109375 111.328125 95.109375 109.578125 96.921875 C110.17238281 96.7053125 110.76664063 96.48875 111.37890625 96.265625 C118.66981262 93.81642473 126.20479595 92.19076559 133.578125 95.109375 C136.01725135 97.31983325 137.34599337 98.84154593 138.578125 101.921875 C138.69266921 108.90907203 136.26922866 112.87790071 131.578125 117.921875 C129.32808845 120.03690936 127.01143199 122.02130386 124.578125 123.921875 C125.114375 123.76589844 125.650625 123.60992187 126.203125 123.44921875 C135.18793721 121.45423578 142.93060027 122.59546082 150.91015625 127.0859375 C157.27783239 131.4677937 162.12649236 137.19711558 163.578125 144.921875 C164.58079811 154.79820516 163.03743027 161.7329171 157.578125 169.921875 C158.361875 169.57125 159.145625 169.220625 159.953125 168.859375 C164.9866432 167.55760305 170.82316712 167.54439606 175.578125 169.921875 C176.4138177 167.54702675 176.74036319 166.35137926 175.8359375 163.95703125 C175.27519531 162.98056641 175.27519531 162.98056641 174.703125 161.984375 C171.36208917 155.72857344 170.51948833 149.42108083 172.15625 142.46484375 C174.49570006 135.54219833 178.34805883 130.77678735 184.578125 126.921875 C187.50390625 126.04296875 187.50390625 126.04296875 190.453125 125.421875 C194.26145537 124.71535032 194.26145537 124.71535032 196.87109375 122.11328125 C197.61360017 120.05913911 198.11541895 118.05378231 198.578125 115.921875 C198.990625 115.179375 199.403125 114.436875 199.828125 113.671875 C200.82021046 111.35700893 200.1966445 110.3447652 199.578125 107.921875 C198.89805237 100.74209177 199.23540905 94.86097874 203.578125 88.921875 C208.55836262 83.70999842 214.48709698 81.1723461 221.640625 80.734375 C222.28 80.79625 222.919375 80.858125 223.578125 80.921875 C223.51625 79.560625 223.51625 79.560625 223.453125 78.171875 C223.578125 74.921875 223.578125 74.921875 224.640625 72.984375 C226.06699733 69.84635587 225.11468524 67.3022045 224.578125 63.921875 C223.99791649 56.85388043 223.9515154 50.63636307 228.578125 44.921875 C234.4704447 39.43297138 240.71611176 37.77420541 248.578125 36.921875 C248.660625 35.890625 248.743125 34.859375 248.828125 33.796875 C249.85077607 28.51317783 252.00446067 25.45182643 255.828125 21.734375 C263.19974501 16.87580727 269.90581801 16.16114632 278.578125 16.921875 C280.02671852 17.298165 281.4669376 17.71021326 282.890625 18.171875 C286.73600426 18.95398604 287.13315547 19.00026923 290.265625 17.171875 C290.78511719 16.80578125 291.30460937 16.4396875 291.83984375 16.0625 C293.578125 14.921875 293.578125 14.921875 296.12109375 14.0703125 C299.21788643 12.62284502 299.74268228 11.34024919 301.203125 8.296875 C305.45179578 0.7691019 312.21512922 -4.17096818 320.328125 -7.078125 C332.07837087 -9.93629292 343.31826534 -8.68292481 353.8203125 -2.828125 C360.87516083 1.85735918 365.09428802 8.84992026 366.953125 17.046875 C367.159375 18.325625 367.365625 19.604375 367.578125 20.921875 C368.32255859 20.10783203 368.32255859 20.10783203 369.08203125 19.27734375 C375.22759792 12.80525741 379.85063345 9.83325098 388.953125 9.484375 C396.93868528 9.6771299 403.92141965 12.10803894 409.578125 17.921875 C414.02972613 24.87750177 416.35822739 30.61378451 415.578125 38.921875 C414.77750887 42.00797091 413.75442036 44.96013132 412.578125 47.921875 C413.36574219 47.87546875 414.15335938 47.8290625 414.96484375 47.78125 C425.15215865 47.44368217 436.01721757 48.78417791 444.2109375 55.44921875 C447.80283023 59.31820034 449.76133935 63.7114268 450.078125 68.984375 C449.27430073 75.31449113 446.67286031 79.74372648 441.5703125 83.72265625 C437.18718962 86.36112434 432.34724783 88.1083736 427.578125 89.921875 C428.30257812 90.15261719 429.02703125 90.38335937 429.7734375 90.62109375 C437.06536443 93.08090377 442.07261826 95.16361489 446.453125 101.734375 C448.42294767 107.31553922 448.27457777 111.16560279 446.140625 116.546875 C441.54413427 123.63582901 433.42050213 126.80832655 425.578125 128.921875 C426.24199219 129.21320313 426.90585937 129.50453125 427.58984375 129.8046875 C434.38976201 132.96143788 438.08475057 135.64751883 441.890625 142.171875 C443.55566807 148.83204728 443.37931208 155.09513247 439.89453125 161.10546875 C435.07818627 167.75116731 429.43527129 170.11963219 421.578125 171.921875 C422.2071875 172.19 422.83625 172.458125 423.484375 172.734375 C435.58075184 178.27247524 441.7764448 186.67596754 446.77978516 198.71923828 C453.34334629 216.82824395 451.64610171 237.62492005 443.578125 254.921875 C438.15258204 264.08954146 431.79293636 270.51693788 421.578125 273.921875 C422.279375 274.12941406 422.980625 274.33695312 423.703125 274.55078125 C432.03812357 277.25739084 438.48946831 280.91897824 443.078125 288.609375 C445.61984517 294.453062 445.66388674 301.13777047 443.91796875 307.22265625 C441.16826835 313.35294068 436.8212635 318.44017156 430.6796875 321.24609375 C427.99762932 322.22859578 425.32009991 323.12357851 422.578125 323.921875 C423.279375 324.29957031 423.980625 324.67726563 424.703125 325.06640625 C436.85559827 332.11682213 443.69350748 342.91876586 447.546875 356.28125 C451.96699661 375.3532562 450.85677989 396.42067228 441.578125 413.921875 C437.28347235 420.72611684 431.83236626 426.29475437 424.578125 429.921875 C426.30136411 431.64511411 428.6361591 431.45956128 430.95043945 431.82177734 C439.37545136 433.16850202 445.90235888 434.70555504 451.703125 441.359375 C452.578125 443.921875 452.578125 443.921875 452.140625 446.921875 C449.38277093 452.21695482 445.75133539 454.69129445 440.265625 456.609375 C435.75978278 457.95806247 431.18771634 458.99559778 426.578125 459.921875 C426.90554688 460.52257812 427.23296875 461.12328125 427.5703125 461.7421875 C429.08091574 465.00930614 428.79702746 466.53603485 427.578125 469.921875 C423.60208241 473.90736187 419.09291371 476.66851393 413.578125 477.921875 C412.258125 477.921875 410.938125 477.921875 409.578125 477.921875 C409.3925 478.746875 409.206875 479.571875 409.015625 480.421875 C405.91910042 487.9612392 399.89969672 493.46207346 392.578125 496.921875 C391.299375 497.23125 390.020625 497.540625 388.703125 497.859375 C387.671875 498.21 386.640625 498.560625 385.578125 498.921875 C384.89969549 500.91791554 384.23457159 502.91849727 383.578125 504.921875 C377.0792196 513.45168833 368.29322431 518.72935694 357.78125 520.640625 C347.04206986 522.01158417 336.40368676 520.13840933 327.546875 513.65625 C321.86363916 508.64958985 316.88464611 501.72403908 316.390625 493.984375 C316.4525 493.30375 316.514375 492.623125 316.578125 491.921875 C315.918125 491.921875 315.258125 491.921875 314.578125 491.921875 C314.35125 492.788125 314.124375 493.654375 313.890625 494.546875 C311.21074958 501.43798322 307.15847099 504.51460931 300.859375 507.94140625 C293.80731886 510.97234134 286.3848341 510.49355171 279.20703125 508.1484375 C272.45323257 504.99733381 267.00649006 499.80068997 263.953125 492.984375 C261.29457992 484.895877 262.45697366 477.94831166 264.578125 469.921875 C263.67271973 469.83268799 263.67271973 469.83268799 262.74902344 469.74169922 C237.11064487 467.08793643 237.11064487 467.08793643 228.9765625 459.41015625 C227.14770347 457.04010425 226.5657366 454.84754463 226.078125 451.921875 C226.8531695 447.27160803 228.62450464 444.35669161 232.4609375 441.5390625 C238.16419779 438.12528304 244.13400087 436.4034213 250.578125 434.921875 C250.578125 434.261875 250.578125 433.601875 250.578125 432.921875 C250.041875 432.839375 249.505625 432.756875 248.953125 432.671875 C240.32934636 429.94857648 235.39345119 422.80195356 231.390625 415.171875 C224.675834 400.82583859 222.78144146 384.18251623 227.203125 368.734375 C227.93605952 366.77390328 228.72660591 364.83382625 229.578125 362.921875 C230.01382812 361.93832031 230.44953125 360.95476562 230.8984375 359.94140625 C235.83620214 349.94445653 242.32975721 344.92514367 252.578125 340.921875 C249.278125 339.271875 245.978125 337.621875 242.578125 335.921875 C242.10503906 336.5509375 241.63195312 337.18 241.14453125 337.828125 C228.66418674 353.98202121 228.66418674 353.98202121 218.42578125 356.05859375 C216.33623438 356.78928119 216.33623438 356.78928119 215.55078125 359.22265625 C215.22980469 360.11339844 214.90882813 361.00414062 214.578125 361.921875 C209.04655405 369.50506146 201.95225501 375.90000382 192.578125 377.921875 C185.41903984 378.53960808 180.14962681 377.73823292 173.578125 374.921875 C172.588125 374.921875 171.598125 374.921875 170.578125 374.921875 C169.4953125 376.035625 169.4953125 376.035625 168.390625 377.171875 C162.96532367 382.47661408 158.4623906 384.17419987 150.828125 384.359375 C133.37168103 383.74784352 117.0315247 376.132676 104.578125 363.921875 C96.8049159 355.47498778 93.17343034 348.91359646 93.47265625 337.30078125 C93.50746094 336.51574219 93.54226562 335.73070312 93.578125 334.921875 C92.65 335.416875 91.721875 335.911875 90.765625 336.421875 C87.578125 337.921875 87.578125 337.921875 84.578125 337.921875 C85.11207804 342.46047588 86.9978668 345.21275383 89.578125 348.921875 C91.84115096 355.71095288 91.73865661 365.16702457 89.078125 371.859375 C85.17339386 379.15832473 79.3929618 384.3169294 71.578125 386.921875 C71.578125 387.251875 71.578125 387.581875 71.578125 387.921875 C72.23039063 388.09203125 72.88265625 388.2621875 73.5546875 388.4375 C80.24158902 390.29168508 85.2478306 392.21369502 89.890625 397.609375 C92.55759825 402.84454471 93.35226763 407.45429535 91.578125 413.109375 C86.39046656 420.40451969 80.15207942 423.64451044 71.578125 425.609375 C70.918125 425.7125 70.258125 425.815625 69.578125 425.921875 C69.578125 426.911875 69.578125 427.901875 69.578125 428.921875 C71.41146139 430.40826409 71.41146139 430.40826409 73.765625 431.734375 C80.45481142 436.02931573 84.16537078 440.54862471 86.19921875 448.265625 C87.06242244 454.31694982 85.66523561 459.14296673 82.515625 464.296875 C77.65589007 468.63961685 72.61096393 471.14848727 66.015625 471.171875 C64.88125 471.089375 63.746875 471.006875 62.578125 470.921875 C62.495625 472.118125 62.413125 473.314375 62.328125 474.546875 C61.64101581 479.94831666 59.2126738 483.23925124 55.453125 487.109375 C52.09333206 489.22750533 48.89684941 490.19658883 45.078125 491.2109375 C40.30425229 492.56850755 36.68893227 494.39867152 32.703125 497.359375 C29.76773286 499.48786142 27.20575961 501.21517268 23.765625 502.359375 C19.8754338 504.26633147 19.07112956 506.07410961 17.00390625 509.73046875 C11.65131457 517.95732884 3.45409832 522.2689968 -5.859375 524.5078125 C-18.94239121 526.62183646 -29.55714054 523.88509999 -40.3671875 516.61328125 C-45.51006356 512.68376772 -47.90396098 507.79313994 -50.421875 501.921875 C-50.66421875 502.79070313 -50.9065625 503.65953125 -51.15625 504.5546875 C-54.57307775 516.3033183 -54.57307775 516.3033183 -58.421875 520.921875 C-61.27511937 522.34849719 -63.25642049 522.23221368 -66.421875 521.921875 C-77.38027519 514.65654196 -80.40935765 498.73620012 -82.90625 486.63964844 C-84.45852004 478.45789179 -85.5842144 470.20596977 -86.421875 461.921875 C-86.51976318 460.96361816 -86.61765137 460.00536133 -86.71850586 459.01806641 C-87.75498245 447.04890398 -87.53128273 435.04994362 -87.484375 423.046875 C-87.47934907 420.79817808 -87.4747881 418.54948007 -87.47070312 416.30078125 C-87.45978617 410.8411217 -87.44313501 405.38150357 -87.421875 399.921875 C-88.55668304 399.82746124 -88.55668304 399.82746124 -89.7144165 399.73114014 C-91.20204498 399.60270721 -91.20204498 399.60270721 -92.71972656 399.47167969 C-93.70314026 399.38811218 -94.68655396 399.30454468 -95.69976807 399.21844482 C-104.37734313 398.2730349 -112.59212864 394.41024016 -118.26171875 387.765625 C-127.668417 375.19684425 -129.63725603 361.23501371 -128.421875 345.921875 C-126.3698336 334.75876979 -121.46185038 324.63184048 -112.58203125 317.39453125 C-108.78493068 314.80591115 -104.13146134 311.921875 -99.421875 311.921875 C-100.50297573 309.16998224 -101.4189513 307.92415597 -103.78515625 306.078125 C-113.60566275 298.04713302 -117.9284451 283.14084691 -119.421875 270.921875 C-120.60873403 251.6333262 -119.04229035 232.40654567 -106.984375 216.421875 C-103.97913943 213.48993786 -101.15180193 211.82340638 -97.421875 209.921875 C-99.51461222 208.85866828 -101.61074274 207.83740651 -103.75390625 206.87890625 C-115.51809885 201.450704 -120.46644329 193.63709086 -125.421875 181.921875 C-129.60809763 170.39237812 -129.38316154 153.73652584 -124.6796875 142.421875 C-124.26460937 141.596875 -123.84953125 140.771875 -123.421875 139.921875 C-122.98617187 139.035 -122.55046875 138.148125 -122.1015625 137.234375 C-117.029661 127.92203127 -110.27815477 122.59516445 -100.421875 118.921875 C-102.01515625 118.50228516 -102.01515625 118.50228516 -103.640625 118.07421875 C-112.63663425 115.57668587 -120.38132249 113.31614742 -125.62890625 105.01171875 C-127.70829872 100.56093401 -127.67377572 96.78272297 -126.33984375 92.09375 C-123.78732164 86.05459131 -119.42237068 82.29758154 -113.5234375 79.6328125 C-110.16090468 78.4953014 -106.95727466 78.17440355 -103.421875 77.921875 C-104.74513426 75.27535649 -105.87422513 75.24688442 -108.609375 74.234375 C-113.51495634 72.12192371 -116.69399833 69.54276218 -119.421875 64.921875 C-120.63249558 60.86273542 -120.72027961 58.79953561 -119.359375 54.796875 C-115.01714881 48.35357162 -109.86991354 45.59469649 -102.421875 43.921875 C-98.859375 43.734375 -98.859375 43.734375 -96.421875 43.921875 C-96.504375 42.91125 -96.586875 41.900625 -96.671875 40.859375 C-96.38121848 36.28153484 -95.48313879 33.29076578 -92.421875 29.921875 C-89.74911635 27.98919984 -87.00258003 26.2962045 -84.1640625 24.6171875 C-81.7650673 23.13404802 -79.80412381 21.63243957 -77.734375 19.734375 C-73.7899103 16.17866763 -69.26122086 14.03943297 -64.34765625 12.10546875 C-61.80656607 10.54370339 -61.12148983 8.88766789 -59.796875 6.234375 C-55.34061482 -1.53321202 -48.25053879 -6.1718053 -39.6875 -8.58203125 C-25.66492578 -11.65249147 -11.15997521 -9.57597873 0 0 Z " fill="#DBD85D" transform="translate(149.421875,20.078125)"/>
<path d="M0 0 C5.88323769 4.43402253 10.59305883 9.97609848 13.39453125 16.8046875 C14.38453125 16.8046875 15.37453125 16.8046875 16.39453125 16.8046875 C16.55953125 16.0003125 16.72453125 15.1959375 16.89453125 14.3671875 C20.12312991 6.69926568 25.95297774 1.50517637 33.21875 -2.3203125 C40.66629218 -5.31537434 49.61755857 -5.26006809 57.09765625 -2.421875 C66.1980971 2.43788423 71.91536138 10.03766796 75.01171875 19.73828125 C75.49992086 22.3735763 75.48891471 24.876477 75.45703125 27.5546875 C75.44800781 28.53953125 75.43898438 29.524375 75.4296875 30.5390625 C75.41228516 31.66054687 75.41228516 31.66054687 75.39453125 32.8046875 C76.63847656 32.75828125 77.88242188 32.711875 79.1640625 32.6640625 C90.42686645 32.36743457 100.19201074 32.38397379 109.39453125 39.7421875 C113.98899527 44.16078687 115.96476613 48.11548898 116.44921875 54.4765625 C116.29167708 61.1833363 112.94931807 66.1692964 108.4921875 70.9765625 C103.55667581 75.2779023 97.80799959 77.72056029 91.39453125 78.8046875 C91.39453125 79.4646875 91.39453125 80.1246875 91.39453125 80.8046875 C92.63203125 80.8975 92.63203125 80.8975 93.89453125 80.9921875 C100.48281838 82.5216113 105.65978246 86.12786933 109.39453125 91.8046875 C111.03933741 96.73910599 110.98473555 101.06879249 109.33203125 105.9296875 C105.14798787 112.13826801 99.71072499 116.07540534 92.39453125 117.8046875 C88.89453125 117.9921875 88.89453125 117.9921875 86.39453125 117.8046875 C86.45640625 119.1659375 86.45640625 119.1659375 86.51953125 120.5546875 C86.39453125 123.8046875 86.39453125 123.8046875 85.3828125 125.65234375 C84.10730894 128.4302191 84.30205208 130.45221141 84.45703125 133.4921875 C84.56406989 140.81541445 83.24276705 146.00593044 79.20703125 152.1171875 C74.65396398 156.46789622 70.29598807 159.03202748 63.89453125 159.0546875 C62.73953125 158.9721875 61.58453125 158.8896875 60.39453125 158.8046875 C60.14703125 160.0009375 59.89953125 161.1971875 59.64453125 162.4296875 C57.90415476 169.28241994 54.18746646 173.79419389 48.39453125 177.8046875 C41.65097509 180.27732476 34.85282579 180.60007515 28.0859375 177.875 C26.73592123 177.19627622 25.39989934 176.48832032 24.0859375 175.7421875 C20.70036532 173.86565788 19.40724648 173.8020214 15.51953125 174.6171875 C11.6523619 176.13593037 10.55486704 177.86731348 8.89453125 181.6171875 C8.51296875 182.50277344 8.13140625 183.38835937 7.73828125 184.30078125 C5.55797062 188.36351123 2.20020317 190.37091768 -1.60546875 192.8046875 C-4.54444855 194.99183526 -6.61798967 196.82103426 -8.85546875 199.7421875 C-11.9614117 203.66706075 -16.18551224 205.62841262 -20.60546875 207.8046875 C-19.82171875 208.5884375 -19.03796875 209.3721875 -18.23046875 210.1796875 C-13.60546875 214.8046875 -13.60546875 214.8046875 -13.16796875 218.5546875 C-13.29640028 222.28596137 -14.19694389 224.72040177 -16.86328125 227.4921875 C-22.79900283 231.96394188 -30.45673431 233.42106148 -37.60546875 234.8046875 C-37.60546875 235.7946875 -37.60546875 236.7846875 -37.60546875 237.8046875 C-36.92484375 237.9696875 -36.24421875 238.1346875 -35.54296875 238.3046875 C-27.54700985 242.38773034 -23.51391966 250.65875273 -20.60546875 258.8046875 C-17.1299586 271.05948111 -17.87752784 284.42664939 -23.98046875 295.8046875 C-24.82841003 297.15539042 -25.70150501 298.49081828 -26.60546875 299.8046875 C-27.68828125 301.4134375 -27.68828125 301.4134375 -28.79296875 303.0546875 C-32.57572311 306.75338066 -36.79757506 308.69481571 -41.60546875 310.8046875 C-40.61546875 311.03542969 -39.62546875 311.26617187 -38.60546875 311.50390625 C-20.9325745 315.79292236 -20.9325745 315.79292236 -16.04296875 323.2421875 C-14.40985156 327.28947793 -14.08098642 328.73940128 -15.60546875 332.8046875 C-19.41007706 339.18751024 -24.59242407 341.84705846 -31.60546875 343.8046875 C-34.30057121 344.31762636 -36.86273181 344.6015218 -39.60546875 344.8046875 C-39.60546875 345.4646875 -39.60546875 346.1246875 -39.60546875 346.8046875 C-38.78046875 346.9903125 -37.95546875 347.1759375 -37.10546875 347.3671875 C-30.89026413 349.91986083 -25.44473865 354.62510006 -22.60546875 360.8046875 C-20.80499391 365.5513939 -20.84102425 370.58334204 -22.4765625 375.3359375 C-25.93768668 382.87097506 -30.24832691 387.69128241 -38.04296875 390.6796875 C-39.21859375 391.0509375 -40.39421875 391.4221875 -41.60546875 391.8046875 C-40.80882812 391.97484375 -40.0121875 392.145 -39.19140625 392.3203125 C-30.46639167 394.31581462 -24.61748527 396.95766869 -18.60546875 403.8046875 C-16.40544931 407.50472019 -16.37957221 410.57560537 -17.06640625 414.81640625 C-18.50795929 420.13343882 -22.04180645 423.95239856 -26.60546875 426.8046875 C-30.55796545 428.30301958 -34.55737422 429.59090477 -38.60546875 430.8046875 C-37.80882812 430.97484375 -37.0121875 431.145 -36.19140625 431.3203125 C-28.99202035 432.96688738 -24.00856943 434.40158682 -18.73046875 439.6796875 C-17.16413921 442.63830997 -17.13320318 444.49882848 -17.60546875 447.8046875 C-20.42307004 452.73548976 -24.42386807 454.91312032 -29.60546875 456.8046875 C-33.91011103 457.95850914 -38.23701678 458.92566973 -42.60546875 459.8046875 C-42.27546875 460.4646875 -41.94546875 461.1246875 -41.60546875 461.8046875 C-41.11781398 466.11230466 -41.03590524 468.06760531 -43.73046875 471.5546875 C-47.51952037 474.52003225 -50.70270772 476.8046875 -55.60546875 476.8046875 C-55.70988281 477.37445313 -55.81429688 477.94421875 -55.921875 478.53125 C-58.19381039 486.087058 -64.58472153 490.91765511 -71.17578125 494.61328125 C-73.60546875 495.8046875 -73.60546875 495.8046875 -76.26953125 496.73828125 C-78.9854051 497.9781367 -79.53994834 498.80908732 -80.85546875 501.4296875 C-86.30419804 510.75344477 -95.23301849 516.40731364 -105.49829102 519.34667969 C-115.41315242 521.50173472 -127.83968923 521.08549179 -136.60546875 515.8046875 C-137.63671875 515.0415625 -138.66796875 514.2784375 -139.73046875 513.4921875 C-143.79555602 511.10615802 -146.06584909 511.86545585 -150.60546875 512.8046875 C-150.77046875 513.7740625 -150.93546875 514.7434375 -151.10546875 515.7421875 C-152.86166466 521.82703531 -157.55617685 526.7956775 -162.76953125 530.23046875 C-169.91862962 533.91212053 -176.51516889 534.74006706 -184.41796875 532.8046875 C-195.03915618 529.3180971 -201.55427573 521.43562886 -206.60546875 511.8046875 C-212.8668118 498.86981266 -213.84798004 484.97812486 -213.60546875 470.8046875 C-214.21132813 470.83949219 -214.8171875 470.87429688 -215.44140625 470.91015625 C-225.81960932 471.24545204 -233.89092365 468.88879666 -241.60546875 461.8046875 C-248.24942436 455.25112584 -251.22211549 448.45914808 -251.85546875 439.1171875 C-251.65852499 428.65947384 -247.08524934 421.18491741 -239.79296875 414.0546875 C-235.79042222 411.22936054 -230.67192956 407.8046875 -225.60546875 407.8046875 C-225.60546875 407.1446875 -225.60546875 406.4846875 -225.60546875 405.8046875 C-226.55421875 405.7634375 -227.50296875 405.7221875 -228.48046875 405.6796875 C-235.52246856 404.6369573 -241.71208508 400.40468552 -246.04296875 394.8671875 C-246.92587128 393.53157858 -247.78293215 392.17829647 -248.60546875 390.8046875 C-249.22421875 389.7940625 -249.84296875 388.7834375 -250.48046875 387.7421875 C-253.31250214 380.30383475 -252.88872242 370.56651923 -249.66796875 363.3671875 C-244.26808527 354.26150164 -236.25036145 349.55447756 -226.60546875 345.8046875 C-227.28609375 345.2890625 -227.96671875 344.7734375 -228.66796875 344.2421875 C-236.88258533 337.42580353 -242.29731486 330.51096103 -244.60546875 319.8046875 C-245.79665249 305.567988 -245.02300764 293.13839764 -235.62109375 281.75390625 C-232.38085348 278.62041809 -228.68969721 276.64768402 -224.60546875 274.8046875 C-225.52328125 274.63453125 -226.44109375 274.464375 -227.38671875 274.2890625 C-245.70534545 270.67151857 -245.70534545 270.67151857 -251.60546875 262.8046875 C-252.83735277 259.04017236 -253.02564374 255.86748305 -251.54296875 252.1171875 C-245.50512777 244.91073214 -238.76521515 242.28206595 -229.60546875 240.8046875 C-231.20342619 239.73938254 -232.80171472 238.67456789 -234.40234375 237.61328125 C-244.8018684 230.31281495 -250.18363038 220.82323203 -252.91796875 208.5546875 C-254.11854663 201.18271805 -253.97802537 192.92235737 -251.60546875 185.8046875 C-251.53743908 184.07673398 -251.5205123 182.34633385 -251.54296875 180.6171875 C-251.55199219 179.71613281 -251.56101562 178.81507813 -251.5703125 177.88671875 C-251.58191406 177.19964844 -251.59351563 176.51257813 -251.60546875 175.8046875 C-252.26546875 175.8046875 -252.92546875 175.8046875 -253.60546875 175.8046875 C-254.87749155 177.59790559 -254.87749155 177.59790559 -256.16796875 179.8671875 C-262.64228498 189.8048729 -272.53382164 194.87325766 -283.88671875 197.58984375 C-300.54876076 200.47512855 -317.97383211 198.7887048 -332.38671875 189.4296875 C-340.09386243 183.78501889 -344.66949485 177.25900665 -346.60546875 167.8046875 C-346.64435224 165.47167817 -346.65033225 163.13758949 -346.60546875 160.8046875 C-347.41628906 160.77890625 -348.22710938 160.753125 -349.0625 160.7265625 C-359.78738061 160.17720889 -369.0199003 158.3922405 -376.9453125 150.7109375 C-381.73072213 145.21616127 -383.42349284 139.91905414 -383.109375 132.61328125 C-382.02571782 126.57336254 -379.0381447 121.86606028 -374.37890625 117.91796875 C-369.34638421 114.44233062 -364.82572216 111.8046875 -358.60546875 111.8046875 C-358.60546875 111.1446875 -358.60546875 110.4846875 -358.60546875 109.8046875 C-359.57484375 109.7634375 -360.54421875 109.7221875 -361.54296875 109.6796875 C-367.280085 108.84010951 -372.29748292 105.51103801 -376.03125 101.1328125 C-379.11570242 96.24255339 -380.06509378 91.20710653 -379.3046875 85.578125 C-377.59068708 78.79208251 -373.49155522 74.4387061 -367.60546875 70.8046875 C-363.65463961 69.39300035 -359.74288033 68.47675436 -355.60546875 67.8046875 C-355.60546875 66.8146875 -355.60546875 65.8246875 -355.60546875 64.8046875 C-356.60707031 64.28519531 -357.60867188 63.76570313 -358.640625 63.23046875 C-376.061264 54.12099462 -376.061264 54.12099462 -379.60546875 48.8046875 C-379.91796875 46.2421875 -379.91796875 46.2421875 -379.60546875 43.8046875 C-374.97188499 40.71563166 -370.93487368 41.81404517 -365.60546875 42.8046875 C-359.58371873 44.43628763 -353.63806702 46.49935172 -347.91015625 48.96484375 C-345.38791851 50.03294237 -345.38791851 50.03294237 -341.60546875 49.8046875 C-341.11046875 44.8546875 -341.11046875 44.8546875 -340.60546875 39.8046875 C-341.26933594 39.42957031 -341.93320312 39.05445313 -342.6171875 38.66796875 C-352.50669535 32.93638537 -352.50669535 32.93638537 -355.60546875 28.8046875 C-355.98046875 25.5546875 -355.98046875 25.5546875 -355.60546875 22.8046875 C-354.01245032 21.21166907 -352.37179993 21.63437807 -350.16796875 21.6171875 C-346.33116651 21.62268435 -343.00605464 22.11247802 -339.29296875 23.0546875 C-336.85920364 23.6658255 -336.85920364 23.6658255 -334.60546875 23.8046875 C-331.81235182 22.08701168 -331.81235182 22.08701168 -329.60546875 19.8046875 C-325.63124136 18.53631705 -324.10861406 18.59038487 -320.23046875 20.2421875 C-319.36421875 20.7578125 -318.49796875 21.2734375 -317.60546875 21.8046875 C-317.23421875 20.3815625 -317.23421875 20.3815625 -316.85546875 18.9296875 C-312.57467572 4.37499121 -312.57467572 4.37499121 -306.4609375 -0.1875 C-303.20387898 -1.95659705 -301.2028092 -1.96617117 -297.60546875 -1.1953125 C-292.7484251 1.75504046 -289.58839194 5.43913063 -287.60546875 10.8046875 C-287.60546875 12.1246875 -287.60546875 13.4446875 -287.60546875 14.8046875 C-285.63790423 14.77345807 -285.63790423 14.77345807 -283.60546875 13.8046875 C-282.92422169 11.80960683 -282.26119666 9.80830057 -281.60546875 7.8046875 C-277.54510302 0.87499665 -272.24042302 -3.65032774 -264.60546875 -6.1953125 C-256.87372672 -7.18838028 -251.02492222 -5.58230925 -244.60546875 -1.1953125 C-239.52202713 3.20088272 -237.00378648 8.63593756 -234.60546875 14.8046875 C-233.98671875 16.320625 -233.98671875 16.320625 -233.35546875 17.8671875 C-232.98421875 18.82625 -232.98421875 18.82625 -232.60546875 19.8046875 C-232.37472656 19.21300781 -232.14398437 18.62132813 -231.90625 18.01171875 C-228.74424552 10.35041935 -224.73775792 6.14608091 -217.60546875 1.8046875 C-211.18366913 -0.33591237 -203.68498872 -0.00359273 -197.45703125 2.6875 C-193.35838994 5.16051986 -189.63465952 8.59870883 -187.59765625 12.96484375 C-186.68581208 15.15840846 -186.68581208 15.15840846 -183.60546875 15.8046875 C-183.25935547 14.82628906 -183.25935547 14.82628906 -182.90625 13.828125 C-180.23371109 6.66614327 -177.7201142 1.35234204 -170.85546875 -2.5703125 C-165.69074358 -4.88084745 -160.84001153 -5.23083159 -155.43359375 -3.5 C-147.52456251 0.03825082 -144.36485261 5.67217983 -141.3046875 13.4375 C-140.60546875 15.8046875 -140.60546875 15.8046875 -140.60546875 19.8046875 C-138.31908827 17.86126409 -137.2860356 16.20004619 -135.85546875 13.4921875 C-131.38265801 5.53493992 -123.90076025 1.94550016 -115.60546875 -1.1953125 C-112.60546875 -2.0078125 -112.60546875 -2.0078125 -109.60546875 -2.1953125 C-108.80753906 -2.24558594 -108.00960938 -2.29585937 -107.1875 -2.34765625 C-96.10625714 -2.73839119 -86.49618087 0.0900238 -77.60546875 6.8046875 C-74.80860424 9.53333581 -72.35825595 12.29911311 -70.60546875 15.8046875 C-68.62546875 15.4746875 -66.64546875 15.1446875 -64.60546875 14.8046875 C-64.44046875 13.9796875 -64.27546875 13.1546875 -64.10546875 12.3046875 C-59.79831518 2.2546625 -50.15810789 -2.1366173 -40.60546875 -6.1953125 C-27.10416001 -10.1810078 -11.66573278 -7.38523555 0 0 Z " fill="#DBD85D" transform="translate(1088.60546875,12.1953125)"/>
<path d="M0 0 C2.50028014 2.30401242 3.68602431 4.28563494 5.1015625 7.359375 C5.52050781 8.25140625 5.93945312 9.1434375 6.37109375 10.0625 C6.67402344 10.73796875 6.97695312 11.4134375 7.2890625 12.109375 C7.67578125 11.62726563 8.0625 11.14515625 8.4609375 10.6484375 C8.98171875 10.01679688 9.5025 9.38515625 10.0390625 8.734375 C10.54953125 8.10789063 11.06 7.48140625 11.5859375 6.8359375 C15.2471068 3.12438514 18.54565643 2.79403008 23.6640625 2.734375 C29.0748335 2.83121206 32.23881308 3.26163805 36.2890625 7.109375 C40.79712719 11.83975521 42.42874336 15.23650199 42.3515625 21.796875 C42.34253906 22.79074219 42.33351563 23.78460938 42.32421875 24.80859375 C42.30681641 25.94748047 42.30681641 25.94748047 42.2890625 27.109375 C42.9490625 26.779375 43.6090625 26.449375 44.2890625 26.109375 C56.78522795 24.19750111 66.20069943 29.26692376 76.2109375 36.10546875 C78.67980418 38.01078977 80.99168015 40.00142593 83.2890625 42.109375 C84.04445313 42.77324219 84.79984375 43.43710938 85.578125 44.12109375 C95.12840771 52.99859022 103.38163475 64.99162625 105.2890625 78.109375 C104.77936721 86.61907029 104.77936721 86.61907029 102.2890625 89.109375 C102.86914062 89.20734375 103.44921875 89.3053125 104.046875 89.40625 C109.31966808 90.41556353 113.02592911 91.68033293 117.2890625 95.109375 C117.83046875 95.53476563 118.371875 95.96015625 118.9296875 96.3984375 C132.39508308 108.22614983 137.95785594 129.95160162 139.2890625 147.109375 C140.07813758 160.26911098 140.51405722 176.67327762 131.2890625 187.109375 C128.84344162 189.50078261 126.36976681 191.56902285 123.2890625 193.109375 C124.03671875 193.49609375 124.784375 193.8828125 125.5546875 194.28125 C126.53953125 194.80203125 127.524375 195.3228125 128.5390625 195.859375 C129.51359375 196.36984375 130.488125 196.8803125 131.4921875 197.40625 C134.23836361 199.07850249 136.24468111 200.63252832 138.2890625 203.109375 C138.0390625 205.859375 138.0390625 205.859375 137.2890625 208.109375 C129.68752204 207.77959016 123.31587031 205.98154929 116.2890625 203.109375 C116.1034375 203.975625 115.9178125 204.841875 115.7265625 205.734375 C113.66728425 210.5692022 109.98671161 213.76055045 105.2890625 216.109375 C105.85496094 216.53089844 106.42085937 216.95242188 107.00390625 217.38671875 C107.73738281 217.93457031 108.47085937 218.48242188 109.2265625 219.046875 C109.95746094 219.59214844 110.68835937 220.13742187 111.44140625 220.69921875 C113.2890625 222.109375 113.2890625 222.109375 114.2890625 223.109375 C114.32970082 224.77554615 114.3317835 226.44325595 114.2890625 228.109375 C106.00229626 228.81164333 99.84601944 226.37977368 92.2890625 223.109375 C92.09763672 224.26566406 92.09763672 224.26566406 91.90234375 225.4453125 C90.7476934 230.46105479 87.3019695 233.19854519 83.2890625 236.109375 C84.08570313 236.4496875 84.88234375 236.79 85.703125 237.140625 C92.50734624 240.25301817 98.1009123 243.05987955 101.2890625 250.109375 C101.97932441 253.1286839 102.27473853 256.01539851 102.2890625 259.109375 C102.95292969 259.27953125 103.61679688 259.4496875 104.30078125 259.625 C113.84096679 262.24332829 113.84096679 262.24332829 117.2890625 266.109375 C119.85488386 270.627233 120.91354917 275.00601674 120 280.15234375 C118.43494377 284.46054799 115.29769391 287.84705038 111.44921875 290.265625 C108.7814346 291.30765281 106.39192099 291.53059939 103.5390625 291.734375 C102.55421875 291.80914062 101.569375 291.88390625 100.5546875 291.9609375 C99.80703125 292.00992187 99.059375 292.05890625 98.2890625 292.109375 C98.6396875 293.099375 98.9903125 294.089375 99.3515625 295.109375 C101.18949115 301.68096162 99.70720093 307.34887189 96.5 313.171875 C91.92797215 320.48711956 85.96544491 325.15385917 78.2890625 329.109375 C76.62348271 329.4480974 74.9570731 329.78283324 73.2890625 330.109375 C72.58800407 331.76186987 71.93105899 333.43305083 71.2890625 335.109375 C65.3810043 343.3840617 57.1728165 349.49548964 47.2890625 352.109375 C46.1753125 352.2125 45.0615625 352.315625 43.9140625 352.421875 C39.43398774 353.27154435 36.48290094 355.2329584 32.71875 357.734375 C30.19924903 359.16020192 28.13828789 359.70379131 25.2890625 360.109375 C25.0621875 360.975625 24.8353125 361.841875 24.6015625 362.734375 C21.12156548 371.68293876 13.24667367 376.32746637 4.9140625 380.359375 C-5.84125261 384.81434954 -17.24708044 385.37008474 -28.2109375 381.296875 C-31.79884954 379.72895171 -34.03359917 377.98503469 -36.7109375 375.109375 C-39.35278291 374.31256182 -39.35278291 374.31256182 -41.7109375 374.109375 C-41.7934375 375.140625 -41.8759375 376.171875 -41.9609375 377.234375 C-43.2914256 384.10856354 -47.07991306 388.13453422 -52.7109375 392.109375 C-62.68315808 396.4722215 -74.76287899 394.66943057 -84.7109375 391.109375 C-85.67644531 390.7690625 -86.64195312 390.42875 -87.63671875 390.078125 C-99.03019208 385.703977 -108.34543793 378.6780355 -117.53125 370.796875 C-119.51508326 368.90531727 -119.51508326 368.90531727 -121.7109375 369.109375 C-121.9790625 369.67785156 -122.2471875 370.24632812 -122.5234375 370.83203125 C-126.42615208 378.52191951 -131.1727413 384.19703424 -139.5234375 387.046875 C-150.23969485 389.68497505 -161.36565848 388.4612431 -170.9609375 382.859375 C-177.78441985 378.19362629 -182.99999777 372.8643541 -185.3984375 364.796875 C-185.85165296 360.89922207 -185.78778009 357.02834689 -185.7109375 353.109375 C-186.15824219 353.51929688 -186.60554688 353.92921875 -187.06640625 354.3515625 C-187.67097656 354.89039063 -188.27554687 355.42921875 -188.8984375 355.984375 C-189.49011719 356.51804687 -190.08179688 357.05171875 -190.69140625 357.6015625 C-196.73724311 362.11547551 -203.47328722 361.7892494 -210.7109375 361.109375 C-218.08323629 359.23544213 -224.92051797 354.42404104 -229.0625 348.01953125 C-232.28966847 341.78575618 -233.9195902 335.69928925 -232.07421875 328.69140625 C-230.03449292 322.43293042 -230.03449292 322.43293042 -228.7109375 321.109375 C-229.9896875 321.068125 -231.2684375 321.026875 -232.5859375 320.984375 C-241.48340579 319.95076016 -248.18674369 314.50315179 -253.76953125 307.78125 C-263.63461835 294.20434945 -271.05696409 278.08779561 -271.0859375 261.109375 C-271.11042969 260.35398437 -271.13492187 259.59859375 -271.16015625 258.8203125 C-271.19687223 251.69741166 -268.59165734 246.93045477 -264.7109375 241.109375 C-265.8865625 240.779375 -267.0621875 240.449375 -268.2734375 240.109375 C-274.87403369 237.55543407 -278.37903465 233.09669199 -281.22265625 226.71875 C-287.21212873 210.58664647 -288.17909365 192.07809932 -281.38671875 175.96875 C-277.54258936 168.42174532 -273.7245876 164.14996736 -265.7109375 161.109375 C-266.37480469 160.80644531 -267.03867188 160.50351562 -267.72265625 160.19140625 C-274.94286613 156.76575923 -279.90353115 153.34344706 -283.7109375 146.109375 C-285.31816165 141.28770254 -285.09722893 137.40458746 -283.6484375 132.546875 C-280.83094822 127.54810369 -277.20744254 123.94154335 -271.7109375 122.109375 C-269.81622934 122.0408255 -267.9192541 122.02457128 -266.0234375 122.046875 C-265.02957031 122.05589844 -264.03570313 122.06492187 -263.01171875 122.07421875 C-261.87283203 122.09162109 -261.87283203 122.09162109 -260.7109375 122.109375 C-260.7934375 120.93375 -260.8759375 119.758125 -260.9609375 118.546875 C-260.96955057 113.67187589 -259.37588061 111.14486028 -256.7109375 107.109375 C-254.37612512 103.3926061 -252.5039378 99.58479579 -250.6484375 95.609375 C-242.46472444 78.92364458 -228.53838281 64.40398694 -213.25390625 53.99609375 C-210.44882453 51.91490409 -208.13350302 49.62321457 -205.7109375 47.109375 C-198.5137358 39.69614355 -190.48095944 34.31892215 -181.3515625 29.55859375 C-177.98389914 27.7103643 -174.88977442 25.56020555 -171.78125 23.30859375 C-169.43259287 21.94814518 -167.38119701 21.5047967 -164.7109375 21.109375 C-164.60652344 20.52800781 -164.50210937 19.94664062 -164.39453125 19.34765625 C-162.04181371 11.64418682 -153.40491899 5.83601137 -146.7109375 2.109375 C-131.69596894 -4.92876561 -115.76786509 -8.33274532 -99.4921875 -3.94921875 C-94.88391228 -2.19522636 -90.94762808 0.63599384 -88.7109375 5.109375 C-88.21787109 4.22185547 -88.21787109 4.22185547 -87.71484375 3.31640625 C-82.37371552 -5.55652493 -76.34948231 -8.31022284 -66.5859375 -11.203125 C-44.25416809 -16.74039362 -18.96352526 -13.22528275 0 0 Z M-78.7109375 108.109375 C-80.17037657 110.68159995 -81.36500204 113.097896 -82.5234375 115.796875 C-85.57688518 122.43256328 -88.63837761 126.86143404 -94.7109375 131.109375 C-95.3709375 131.769375 -96.0309375 132.429375 -96.7109375 133.109375 C-95.7003125 133.58375 -94.6896875 134.058125 -93.6484375 134.546875 C-90.29020813 136.42532121 -88.44693506 138.55871739 -86.2109375 141.671875 C-83.02543019 146.00473506 -80.90442311 147.69296983 -75.7109375 149.109375 C-72.41808649 149.36206917 -72.41808649 149.36206917 -69.7109375 149.109375 C-69.54658203 147.97048828 -69.54658203 147.97048828 -69.37890625 146.80859375 C-69.22035156 145.81472656 -69.06179688 144.82085937 -68.8984375 143.796875 C-68.74761719 142.81074219 -68.59679688 141.82460938 -68.44140625 140.80859375 C-67.66216276 137.9291432 -66.86657581 137.05181831 -64.7109375 135.109375 C-64.80701725 131.74658369 -66.10906448 129.27029466 -67.6484375 126.359375 C-71.01585366 119.85720052 -72.01985373 113.36890631 -71.7109375 106.109375 C-74.62809983 106.109375 -76.14470507 106.65556022 -78.7109375 108.109375 Z M17.2890625 227.109375 C16.96292969 227.76164063 16.63679688 228.41390625 16.30078125 229.0859375 C12.27245603 237.14258795 7.36775517 239.65873571 -0.7109375 243.109375 C-1.7009375 243.769375 -2.6909375 244.429375 -3.7109375 245.109375 C-2.42960937 245.07457031 -1.14828125 245.03976562 0.171875 245.00390625 C27.47370566 244.4852826 27.47370566 244.4852826 36.2890625 252.109375 C37.29501827 253.10338355 38.29624098 254.10224769 39.2890625 255.109375 C39.59199219 254.44550781 39.89492187 253.78164063 40.20703125 253.09765625 C40.62597656 252.21464844 41.04492188 251.33164062 41.4765625 250.421875 C41.88261719 249.55175781 42.28867188 248.68164062 42.70703125 247.78515625 C44.52074976 244.71750889 46.69197259 242.53187063 49.2890625 240.109375 C48.25007813 239.93921875 47.21109375 239.7690625 46.140625 239.59375 C25.38606329 236.05369092 25.38606329 236.05369092 20.2265625 229.859375 C19.5871875 228.951875 18.9478125 228.044375 18.2890625 227.109375 C17.9590625 227.109375 17.6290625 227.109375 17.2890625 227.109375 Z M-51.7109375 229.109375 C-51.96488281 229.64046875 -52.21882813 230.1715625 -52.48046875 230.71875 C-52.82464844 231.42515625 -53.16882812 232.1315625 -53.5234375 232.859375 C-53.85988281 233.55546875 -54.19632813 234.2515625 -54.54296875 234.96875 C-55.75508769 237.1902924 -57.14886144 239.122092 -58.7109375 241.109375 C-58.24042969 242.0271875 -57.76992187 242.945 -57.28515625 243.890625 C-54.07644538 250.19808289 -50.99389607 256.39479097 -48.7109375 263.109375 C-47.6796875 262.531875 -46.6484375 261.954375 -45.5859375 261.359375 C-45.00585938 261.03453125 -44.42578125 260.7096875 -43.828125 260.375 C-41.5772411 259.07174826 -41.5772411 259.07174826 -39.0703125 257.1953125 C-34.91456148 254.61488105 -30.68929172 253.08492585 -26.0859375 251.484375 C-24.40551998 250.890081 -22.72580516 250.29379549 -21.046875 249.6953125 C-20.31001465 249.4379834 -19.5731543 249.1806543 -18.81396484 248.91552734 C-16.69984565 248.10512317 -14.71773447 247.154995 -12.7109375 246.109375 C-14.12632812 246.07070313 -14.12632812 246.07070313 -15.5703125 246.03125 C-27.33881959 245.51135611 -39.05288786 243.962719 -47.7109375 235.109375 C-49.7109375 231.734375 -49.7109375 231.734375 -50.7109375 229.109375 C-51.0409375 229.109375 -51.3709375 229.109375 -51.7109375 229.109375 Z " fill="#DBD85D" transform="translate(1419.7109375,150.890625)"/>
<path d="M0 0 C6.61225486 4.94214925 10.23478695 11.36062473 11.578125 19.3828125 C11.80858886 21.19263167 12.02493339 23.00460141 12.203125 24.8203125 C13.13125 24.1809375 14.059375 23.5415625 15.015625 22.8828125 C21.40886307 18.74601139 28.08692569 18.93862966 35.39453125 20.50390625 C53.9243586 25.87777916 70.54697834 36.8409074 80.31787109 53.85302734 C84.12622117 61.0047203 85.72910555 67.78127005 84.203125 75.8203125 C82.6640625 78.69140625 82.6640625 78.69140625 81.203125 80.8203125 C82.05583984 81.0059375 82.05583984 81.0059375 82.92578125 81.1953125 C89.55688306 82.96655839 93.52288266 85.99920896 97.203125 91.8203125 C100.28740542 99.26191526 100.66497039 108.14482351 98.2578125 115.84375 C95.62685058 121.3538778 92.36714483 125.52912572 87.390625 129.1328125 C83.97780476 130.20541315 80.76892246 129.93917242 77.203125 129.8203125 C77.1 130.8928125 76.996875 131.9653125 76.890625 133.0703125 C76.23110301 136.66770519 75.74536309 138.27807441 73.203125 140.8203125 C72.543125 140.8203125 71.883125 140.8203125 71.203125 140.8203125 C70.97625 141.3978125 70.749375 141.9753125 70.515625 142.5703125 C68.09830741 146.71428551 65.11448871 148.50053576 60.640625 150.0703125 C57.203125 150.8203125 57.203125 150.8203125 53.203125 150.8203125 C53.1825 151.8515625 53.161875 152.8828125 53.140625 153.9453125 C51.8755952 159.17410236 49.70170291 161.05564473 45.203125 163.8203125 C33.4769996 169.76862167 19.78419961 170.09042536 7.203125 166.8203125 C1.36583996 164.65397865 -3.47892029 162.30215071 -6.796875 156.8203125 C-7.126875 155.8303125 -7.456875 154.8403125 -7.796875 153.8203125 C-8.25578125 154.16964844 -8.7146875 154.51898438 -9.1875 154.87890625 C-9.80109375 155.33394531 -10.4146875 155.78898438 -11.046875 156.2578125 C-11.65015625 156.71027344 -12.2534375 157.16273438 -12.875 157.62890625 C-21.03922544 162.69006226 -35.16008814 160.38161744 -44.109375 158.3203125 C-60.5179344 154.19902167 -76.46462235 147.51799978 -89.48828125 136.5546875 C-91.7153812 134.51998792 -91.7153812 134.51998792 -94.796875 134.8203125 C-96.16261203 136.48895171 -96.16261203 136.48895171 -97.296875 138.6328125 C-99.57785717 142.64646381 -99.57785717 142.64646381 -101.42578125 144.11328125 C-103.61740665 146.84188609 -103.19896181 149.9650097 -103.234375 153.3203125 C-103.68713053 165.74235443 -107.64511214 175.17698091 -116.796875 183.8203125 C-116.14460938 184.02785156 -115.49234375 184.23539063 -114.8203125 184.44921875 C-107.29534194 187.10182637 -103.44344974 190.12264233 -99.546875 197.0390625 C-96.34225098 203.89339721 -96.37616328 210.36436587 -96.796875 217.8203125 C-95.94867187 217.88347656 -95.10046875 217.94664062 -94.2265625 218.01171875 C-81.33558708 219.35747992 -70.36601644 223.66801589 -61.796875 233.8203125 C-60.80499996 234.82837198 -59.80725221 235.83079853 -58.796875 236.8203125 C-58.24773437 236.16675781 -58.24773437 236.16675781 -57.6875 235.5 C-50.98636553 228.12875208 -42.00797246 223.33790396 -32.046875 222.5078125 C-26.49945017 222.55975468 -21.68896955 224.92821795 -17.796875 228.8203125 C-17.55195312 228.16804687 -17.30703125 227.51578125 -17.0546875 226.84375 C-13.91030628 219.49240357 -10.09400863 216.0357974 -2.796875 212.8203125 C5.61593185 209.86396823 18.21125486 210.68341852 26.18359375 214.47265625 C29.56116114 216.72654551 31.83368582 219.57033849 34.203125 222.8203125 C34.863125 223.4803125 35.523125 224.1403125 36.203125 224.8203125 C36.863125 224.0778125 37.523125 223.3353125 38.203125 222.5703125 C45.10414838 215.76567213 54.23254178 213.88089339 63.66796875 213.78515625 C72.72792609 214.18847683 81.3162413 215.30377248 87.765625 222.1953125 C90.1251522 225.2726677 91.01157976 227.8936351 91.203125 231.8203125 C92.110625 232.0059375 93.018125 232.1915625 93.953125 232.3828125 C98.18355564 234.25396451 99.55274813 236.59704042 101.203125 240.8203125 C104.12778994 251.7970613 101.12979057 263.63064315 95.81640625 273.359375 C92.92968103 278.01147286 90.20490402 281.31942299 85.203125 283.8203125 C81.828125 284.5703125 81.828125 284.5703125 79.203125 284.8203125 C79.533125 285.8103125 79.863125 286.8003125 80.203125 287.8203125 C81.0728727 298.90959574 75.34753593 306.23191816 68.56152344 314.28222656 C63.60186453 319.89794387 57.8711977 324.4023317 51.765625 328.6953125 C47.68755977 331.57226455 44.28051907 334.65509649 40.828125 338.2578125 C29.34852089 350.01383767 13.33448592 360.12278553 -3.30078125 362.12109375 C-8.54701098 362.15095844 -12.11729076 361.20988743 -16.796875 358.8203125 C-17.27125 359.9959375 -17.745625 361.1715625 -18.234375 362.3828125 C-22.71806481 371.16401814 -30.90587972 374.80619779 -39.92578125 377.7578125 C-91.50541402 392.58182808 -152.07681543 376.8678032 -199.1875 354.71875 C-202.04078097 353.7363329 -203.02501349 353.82870514 -205.796875 354.8203125 C-218.03473082 355.87530007 -227.53031166 349.07088996 -236.796875 341.8203125 C-239.46311887 339.56254611 -242.04660623 337.25001243 -244.59765625 334.86328125 C-246.46481539 333.12877995 -248.37004545 331.5340448 -250.359375 329.9453125 C-255.17494453 325.84023683 -258.91426741 320.78431751 -262.796875 315.8203125 C-263.56515625 314.87929688 -264.3334375 313.93828125 -265.125 312.96875 C-272.74151304 303.35743592 -279.90074017 292.60745739 -279.140625 279.89453125 C-278.796875 277.8203125 -278.796875 277.8203125 -277.796875 275.8203125 C-278.4259375 275.86671875 -279.055 275.913125 -279.703125 275.9609375 C-288.07130071 276.31381238 -293.30738757 274.32648854 -299.484375 268.6953125 C-306.47526197 261.20963673 -309.72812728 251.78961272 -309.828125 241.65234375 C-309.35735 231.61306679 -307.01103372 223.03447122 -299.796875 215.8203125 C-296.77472319 213.66163263 -295.52508318 212.8203125 -291.796875 212.8203125 C-291.796875 212.1603125 -291.796875 211.5003125 -291.796875 210.8203125 C-292.786875 210.7790625 -293.776875 210.7378125 -294.796875 210.6953125 C-299.80816819 209.94463295 -303.27879713 207.36795405 -306.796875 203.8203125 C-312.9620577 195.10187231 -314.75971789 186.37502058 -313.796875 175.8203125 C-312.14405534 168.19952726 -308.8521521 161.83483885 -302.796875 156.8203125 C-298.6579524 154.41526288 -294.44685867 152.90145995 -289.796875 151.8203125 C-290.66699219 151.40072266 -290.66699219 151.40072266 -291.5546875 150.97265625 C-297.73767837 147.79953718 -302.62943726 144.15518799 -305.796875 137.8203125 C-306.3228576 134.06329392 -306.62450388 130.39280737 -304.8203125 126.96484375 C-302.50148734 124.08409471 -300.24988449 122.06915093 -296.796875 120.8203125 C-294.00862742 120.68034023 -291.32860384 120.6314212 -288.546875 120.6953125 C-287.80179688 120.70433594 -287.05671875 120.71335937 -286.2890625 120.72265625 C-284.45819441 120.74612892 -282.62749262 120.78199725 -280.796875 120.8203125 C-281.29058594 120.07265625 -281.78429688 119.325 -282.29296875 118.5546875 C-282.93363281 117.56984375 -283.57429688 116.585 -284.234375 115.5703125 C-284.87246094 114.59578125 -285.51054688 113.62125 -286.16796875 112.6171875 C-289.36175245 107.13337665 -289.71512598 101.40481032 -288.1484375 95.2890625 C-286.00946781 89.21950749 -283.28699379 85.24863996 -277.796875 81.8203125 C-273.3754671 79.79383388 -269.62996113 79.62698905 -264.796875 79.8203125 C-264.69890625 79.24023438 -264.6009375 78.66015625 -264.5 78.0625 C-263.24674342 71.51531479 -261.36815236 67.13446213 -256.296875 62.5703125 C-252.84741897 60.84558449 -250.74827885 60.49118104 -246.984375 60.0703125 C-240.97401025 59.23924972 -238.16074096 57.13280703 -233.94921875 52.8984375 C-231.80870439 50.83173398 -229.70112451 49.37283665 -227.171875 47.8203125 C-224.08083464 45.84459598 -221.85737155 43.9157516 -219.546875 41.0703125 C-204.96803066 23.64196677 -178.83709163 11.6752747 -156.43359375 9.6015625 C-151.12338043 9.38736902 -147.5053448 10.36798448 -142.796875 12.8203125 C-142.466875 13.1503125 -142.136875 13.4803125 -141.796875 13.8203125 C-141.41208984 12.84191406 -141.41208984 12.84191406 -141.01953125 11.84375 C-137.40667545 3.59622059 -133.05499576 -0.0777909 -124.7578125 -3.39453125 C-110.47152183 -8.37523556 -94.46450872 -9.58243415 -80.41796875 -3.078125 C-75.87817079 -0.48634347 -73.33515519 2.27256049 -70.796875 6.8203125 C-70.37728516 6.05847656 -70.37728516 6.05847656 -69.94921875 5.28125 C-65.11025802 -3.02744785 -59.75108713 -7.70662431 -50.42578125 -10.484375 C-32.39133363 -13.93984505 -15.27396202 -10.02768811 0 0 Z " fill="#DBD85D" transform="translate(1873.796875,148.1796875)"/>
<path d="M0 0 C-0.06960938 1.32451172 -0.06960938 1.32451172 -0.140625 2.67578125 C-0.4487622 12.92134311 0.95085753 22.19039358 7.3828125 30.5 C11.96513466 34.75026983 17.92086679 36.97957407 24 38 C21 40 21 40 18.9140625 41.0078125 C11.82557795 44.46738004 8.83206255 48.51371255 5.89453125 55.70703125 C4.78486041 59.79197674 4.61616305 63.53477578 4.625 67.75 C4.62661133 68.54696289 4.62822266 69.34392578 4.62988281 70.16503906 C4.76042934 76.44919067 5.84359443 81.49540343 9 87 C9.8971875 88.60875 9.8971875 88.60875 10.8125 90.25 C15.73618269 96.43977252 20.57680422 100.30680956 28.59765625 101.33203125 C31.06371133 101.59216364 33.52734936 101.81430687 36 102 C35.505 103.485 35.505 103.485 35 105 C32.96995087 115.27581569 38.73360656 124.3915654 44.1171875 132.73046875 C49.08966404 140.0128546 54.94745835 146.60731551 61 153 C61.83144531 153.89589844 62.66289063 154.79179687 63.51953125 155.71484375 C72.8650609 165.47086519 86.58758549 178.08210671 100.34765625 180.39453125 C103.15822955 180.45231874 105.73134207 180.06899241 108.44897461 179.37109375 C111.42178889 178.93864302 112.68136452 179.37063561 115.37890625 180.625 C116.20712891 180.99842529 117.03535156 181.37185059 117.88867188 181.7565918 C118.77103516 182.1669165 119.65339844 182.57724121 120.5625 183 C158.68016218 199.99600069 200.13479003 209.59964289 242 208 C243.80791016 207.93619141 243.80791016 207.93619141 245.65234375 207.87109375 C257.11671183 207.21797217 267.99291244 205.1681526 278.5625 200.6875 C279.54440308 200.28023682 279.54440308 200.28023682 280.54614258 199.86474609 C285.88383194 197.46233895 290.61601475 194.1588671 293.0234375 188.6640625 C293.13945313 187.99117187 293.25546875 187.31828125 293.375 186.625 C293.58125 185.42875 293.7875 184.2325 294 183 C298 185 298 185 299.87109375 186.04296875 C307.55217516 189.49593195 316.12485381 186.0803227 323.5546875 183.3828125 C327.30148586 181.87899547 330.55703678 180.08179172 334 178 C334.66 178.33 335.32 178.66 336 179 C322.47253844 193.40491853 305.83618194 206.85743212 285.49609375 209.30078125 C280.24986402 209.33064594 276.67958424 208.38957493 272 206 C271.2884375 207.7634375 271.2884375 207.7634375 270.5625 209.5625 C266.07881019 218.34370564 257.89099528 221.98588529 248.87109375 224.9375 C197.29146098 239.76151558 136.72005957 224.0474907 89.609375 201.8984375 C86.75609403 200.9160204 85.77186151 201.00839264 83 202 C70.76214418 203.05498757 61.26656334 196.25057746 52 189 C49.33375613 186.74223361 46.75026877 184.42969993 44.19921875 182.04296875 C42.33205961 180.30846745 40.42682955 178.7137323 38.4375 177.125 C33.62193047 173.01992433 29.88260759 167.96400501 26 163 C24.84757812 161.58847656 24.84757812 161.58847656 23.671875 160.1484375 C16.05536196 150.53712342 8.89613483 139.78714489 9.65625 127.07421875 C10 125 10 125 11 123 C10.3709375 123.04640625 9.741875 123.0928125 9.09375 123.140625 C0.72557429 123.49349988 -4.51051257 121.50617604 -10.6875 115.875 C-17.67838697 108.38932423 -20.93125228 98.96930022 -21.03125 88.83203125 C-20.560475 78.79275429 -18.21415872 70.21415872 -11 63 C-7.97784819 60.84132013 -6.72820818 60 -3 60 C-3 59.34 -3 58.68 -3 58 C-3.99 57.95875 -4.98 57.9175 -6 57.875 C-11.01129319 57.12432045 -14.48192213 54.54764155 -18 51 C-24.1651827 42.28155981 -25.96284289 33.55470808 -25 23 C-23.34487316 15.36857686 -20.04955098 9.03142694 -14 4 C-9.33294342 1.17414927 -5.48451367 -0.23092689 0 0 Z " fill="#010100" transform="translate(1585,301)"/>
<path d="M0 0 C1.63001953 0.01353516 1.63001953 0.01353516 3.29296875 0.02734375 C4.12441406 0.03894531 4.95585938 0.05054688 5.8125 0.0625 C6.328125 1.25875 6.84375 2.455 7.375 3.6875 C11.35572909 11.56544637 17.81013308 14.97768736 25.8125 18.0625 C23.79001201 20.08498799 22.64728977 20.58807852 20.0625 21.625 C13.11582757 25.06058256 10.18510332 31.51836098 7.671875 38.56640625 C5.55849911 45.11386511 5.19596295 51.15826151 5.3125 58 C5.32458496 59.14009521 5.33666992 60.28019043 5.34912109 61.45483398 C5.6266689 73.2102451 7.63123837 84.04363301 15.8125 93.0625 C19.4115779 95.92105966 23.23343456 97.50746176 27.8125 98.0625 C27.40257812 98.50980469 26.99265625 98.95710938 26.5703125 99.41796875 C26.03148437 100.02253906 25.49265625 100.62710938 24.9375 101.25 C24.40382813 101.84167969 23.87015625 102.43335938 23.3203125 103.04296875 C17.83039826 110.39604042 19.29133263 120.1788863 20.375 128.8125 C23.30048214 144.2786853 31.97408533 162.86674359 44.875 172.3125 C45.88240234 173.06273437 45.88240234 173.06273437 46.91015625 173.828125 C50.44567565 176.12221973 53.39961056 176.17323988 57.5 176.125 C58.49386719 176.11597656 59.48773437 176.10695313 60.51171875 176.09765625 C61.65060547 176.08025391 61.65060547 176.08025391 62.8125 176.0625 C61.88255538 178.45378617 60.98499153 180.75925866 59.71484375 182.9921875 C57.36062151 188.39364979 58.03931316 195.34508607 59.6171875 200.890625 C62.83263988 208.11984897 68.13719768 212.79730459 75.20703125 216.22265625 C82.23784314 218.48895993 89.77732435 217.99989364 96.375 214.75 C99.37106528 213.06755525 102.09546371 211.16342829 104.8125 209.0625 C104.86857422 210.34833984 104.86857422 210.34833984 104.92578125 211.66015625 C105.47475749 221.20803721 107.04193027 227.94309884 113.57421875 235.1328125 C120.33782688 240.96391619 128.71983773 244.0164739 137.5 244.625 C138.67949219 244.70878906 139.85898438 244.79257812 141.07421875 244.87890625 C141.97785156 244.93949219 142.88148438 245.00007812 143.8125 245.0625 C141.35786999 252.780114 137.66426257 258.61279213 130.8125 263.0625 C121.26461312 267.41281706 111.25906036 267.056825 101.37890625 264.03515625 C93.23348102 260.94807728 86.4264493 255.41908216 81.9375 247.9375 C79.71373832 242.25455349 79.69427621 237.09191324 79.8125 231.0625 C79.36519531 231.47242188 78.91789062 231.88234375 78.45703125 232.3046875 C77.85246094 232.84351563 77.24789063 233.38234375 76.625 233.9375 C76.03332031 234.47117187 75.44164062 235.00484375 74.83203125 235.5546875 C68.78619439 240.06860051 62.05015028 239.7423744 54.8125 239.0625 C47.44020121 237.18856713 40.60291953 232.37716604 36.4609375 225.97265625 C33.23376903 219.73888118 31.6038473 213.65241425 33.44921875 206.64453125 C35.48894458 200.38605542 35.48894458 200.38605542 36.8125 199.0625 C35.53375 199.02125 34.255 198.98 32.9375 198.9375 C24.04003171 197.90388516 17.33669381 192.45627679 11.75390625 185.734375 C1.88881915 172.15747445 -5.53352659 156.04092061 -5.5625 139.0625 C-5.58699219 138.30710937 -5.61148437 137.55171875 -5.63671875 136.7734375 C-5.67343473 129.65053666 -3.06821984 124.88357977 0.8125 119.0625 C-0.363125 118.7325 -1.53875 118.4025 -2.75 118.0625 C-9.35059619 115.50855907 -12.85559715 111.04981699 -15.69921875 104.671875 C-21.68869123 88.53977147 -22.65565615 70.03122432 -15.86328125 53.921875 C-12.01915186 46.37487032 -8.2011501 42.10309236 -0.1875 39.0625 C-0.85136719 38.75957031 -1.51523438 38.45664062 -2.19921875 38.14453125 C-9.41942863 34.71888423 -14.38009365 31.29657206 -18.1875 24.0625 C-19.79472415 19.24082754 -19.57379143 15.35771246 -18.125 10.5 C-13.84708385 2.91014877 -8.63703881 -0.09287139 0 0 Z " fill="#010100" transform="translate(1154.1875,272.9375)"/>
<path d="M0 0 C-0.47811177 1.77111844 -0.9575278 3.54188483 -1.4375 5.3125 C-1.70433594 6.29863281 -1.97117187 7.28476562 -2.24609375 8.30078125 C-2.78079425 10.21517526 -3.37144538 12.11433615 -4 14 C-5.19155877 28.1629581 -3.36171959 40.67723092 4.875 52.625 C12.02220888 61.03457305 20.168734 64.19716521 30.79296875 66.078125 C31.77160889 66.2524707 32.75024902 66.42681641 33.75854492 66.60644531 C34.4982251 66.73631836 35.23790527 66.86619141 36 67 C36.0093457 68.20495117 36.01869141 69.40990234 36.02832031 70.65136719 C36.21641433 91.47399959 36.48246244 112.2333244 38.875 132.9375 C38.95609009 133.65296997 39.03718018 134.36843994 39.12072754 135.10559082 C40.579303 147.72098908 42.2141758 160.6978103 46.9375 172.5625 C47.29618164 173.53026367 47.29618164 173.53026367 47.66210938 174.51757812 C49.77312267 180.00398471 52.04112876 184.69408584 57 188 C59.95746492 188.58345476 59.95746492 188.58345476 63 188 C67.26254451 183.89410606 68.35656967 179.23931202 69.75 173.6875 C69.97042969 172.85154297 70.19085938 172.01558594 70.41796875 171.15429688 C70.95644189 169.10575775 71.47975929 167.05324511 72 165 C73.09796071 167.18605081 74.17810725 169.3755 75.2265625 171.5859375 C78.52034944 178.15511034 81.56130268 182.39608751 88 186 C89.22589844 186.72703125 89.22589844 186.72703125 90.4765625 187.46875 C99.9393865 192.26680161 109.68159537 191.45882234 120 191 C114.8152505 201.9799561 108.44885863 207.44974392 97.00390625 211.75 C86.69460094 214.83636167 74.85425262 213.72141242 65.375 208.75 C57.07195139 203.75949169 52.85015699 198.97778542 49 190 C48.63648437 191.30324219 48.63648437 191.30324219 48.265625 192.6328125 C44.84879725 204.3814433 44.84879725 204.3814433 41 209 C38.14675563 210.42662219 36.16545451 210.31033868 33 210 C22.04159981 202.73466696 19.01251735 186.81432512 16.515625 174.71777344 C14.96335496 166.53601679 13.8376606 158.28409477 13 150 C12.90211182 149.04174316 12.80422363 148.08348633 12.70336914 147.09619141 C11.66689255 135.12702898 11.89059227 123.12806862 11.9375 111.125 C11.94252593 108.87630308 11.9470869 106.62760507 11.95117188 104.37890625 C11.96208883 98.9192467 11.97873999 93.45962857 12 88 C10.86519196 87.90558624 10.86519196 87.90558624 9.7074585 87.80926514 C8.71570618 87.72364319 7.72395386 87.63802124 6.70214844 87.54980469 C5.71873474 87.46623718 4.73532104 87.38266968 3.72210693 87.29656982 C-4.95546813 86.3511599 -13.17025364 82.48836516 -18.83984375 75.84375 C-28.246542 63.27496925 -30.21538103 49.31313871 -29 34 C-26.9479586 22.83689479 -22.03997538 12.70996548 -13.16015625 5.47265625 C-9.36305568 2.88403615 -4.70958634 0 0 0 Z " fill="#010100" transform="translate(50,332)"/>
<path d="M0 0 C-0.20496094 0.67546875 -0.40992187 1.3509375 -0.62109375 2.046875 C-0.89050781 2.93890625 -1.15992187 3.8309375 -1.4375 4.75 C-1.70433594 5.63171875 -1.97117187 6.5134375 -2.24609375 7.421875 C-6.27996101 21.21644698 -4.83651585 35.8547641 1.3203125 48.76953125 C6.55063009 58.3012849 13.58587867 63.92808739 24 67 C26.361007 67.4966111 28.59105543 67.79052656 31 68 C30.41992188 68.28488281 29.83984375 68.56976563 29.2421875 68.86328125 C16.68877915 75.22746562 11.30209023 83.28733722 6.80078125 96.52734375 C0.52059479 117.25303168 3.45633545 137.92886651 13.12109375 157.01171875 C16.90001231 163.0218491 22.20907264 167.73635755 29 170 C29 170.66 29 171.32 29 172 C27.76636719 172.20302734 27.76636719 172.20302734 26.5078125 172.41015625 C16.66094334 174.30903287 8.90088764 177.63928042 2.875 185.9375 C2.25625 186.948125 1.6375 187.95875 1 189 C-3.81843749 188.28615741 -6.82035664 185.4295678 -9.84375 181.765625 C-21.22354442 164.48122027 -23.92443489 142.11645107 -19.87207031 121.99267578 C-17.45089363 111.67770202 -13.40932106 98.92921359 -4.1328125 92.7578125 C-2.45439809 91.78042258 -0.73036956 90.88214919 1 90 C-1.09273722 88.93679328 -3.18886774 87.91553151 -5.33203125 86.95703125 C-17.09622385 81.528829 -22.04456829 73.71521586 -27 62 C-31.18622263 50.47050312 -30.96128654 33.81465084 -26.2578125 22.5 C-25.84273437 21.675 -25.42765625 20.85 -25 20 C-24.56429688 19.113125 -24.12859375 18.22625 -23.6796875 17.3125 C-18.98790256 8.69807519 -12.83849661 3.40060481 -3.8828125 -0.46875 C-2 -1 -2 -1 0 0 Z " fill="#010100" transform="translate(51,140)"/>
<path d="M0 0 C1.35500919 1.31129922 2.68671343 2.64691687 4 4 C13.4772539 9.92328369 25.13260871 10.53379534 36 11 C35.76216797 12.25876953 35.76216797 12.25876953 35.51953125 13.54296875 C34.12870206 22.79773442 33.28721413 33.07270725 39 41 C44.13354365 46.7922727 49.7136276 50.31457084 57.41015625 51.3125 C65.26785882 51.70113444 70.78685209 49.1009044 77.25 44.875 C80.91285253 41.04565417 82.88562433 36.81815695 85 32 C85.66 32 86.32 32 87 32 C87.14695312 32.76183594 87.29390625 33.52367187 87.4453125 34.30859375 C89.47185049 43.63765657 92.36166079 50.71366946 100.3125 56.375 C101.8521347 57.28963448 103.41457777 58.16725297 105 59 C105.64195312 59.3403125 106.28390625 59.680625 106.9453125 60.03125 C114.70986069 63.31976453 123.74677481 62.2403852 132 62 C129.89855999 69.60677502 125.0587149 74.3745188 118.5 78.6171875 C107.19676512 84.58670842 96.18588312 85.38767795 83.9296875 82.03515625 C75.12049916 78.92257637 69.38746462 73.2103518 64.96875 65.109375 C63.34981375 61.6616404 62.654969 58.79534104 63 55 C62.34 55 61.68 55 61 55 C60.773125 55.86625 60.54625 56.7325 60.3125 57.625 C57.63262458 64.51610822 53.58034599 67.59273431 47.28125 71.01953125 C40.22919386 74.05046634 32.8067091 73.57167671 25.62890625 71.2265625 C18.87510757 68.07545881 13.42836506 62.87881497 10.375 56.0625 C7.71645492 47.974002 8.87884866 41.02643666 11 33 C10.39639648 32.94054199 9.79279297 32.88108398 9.17089844 32.81982422 C-16.46748013 30.16606143 -16.46748013 30.16606143 -24.6015625 22.48828125 C-26.43042153 20.11822925 -27.0123884 17.92566963 -27.5 15 C-26.71910857 10.31465141 -24.92502647 7.39756922 -21.046875 4.58203125 C-15.04475933 1.00384691 -6.95898956 -2.78359583 0 0 Z " fill="#010100" transform="translate(403,457)"/>
<path d="M0 0 C-0.06960938 1.66675781 -0.06960938 1.66675781 -0.140625 3.3671875 C-0.46293206 14.26067578 0.17629063 22.44180718 7.125 31.3125 C15.49378277 40.03365257 25.55431065 41.04855932 37 42 C37.05607422 43.93939453 37.05607422 43.93939453 37.11328125 45.91796875 C37.46327976 55.89484929 37.99302667 65.40571645 41 75 C41.30421875 76.00160156 41.6084375 77.00320313 41.921875 78.03515625 C45.5380989 88.18940814 52.60351795 97.04054668 62.1875 102.1875 C66.45485227 104.03099618 70.37288606 104.74293811 75 105 C73.81440879 111.96534833 70.17923562 116.30234243 65 121 C58.33014263 125.39440062 51.62924666 126.94609188 43.67578125 125.609375 C34.21081242 123.29142345 27.46721306 117.66679621 22.125 109.625 C13.54577246 94.98984713 11.71398744 79.71584505 12 63 C11.09121094 63.05220703 11.09121094 63.05220703 10.1640625 63.10546875 C-0.21414057 63.44076454 -8.2854549 61.08410916 -16 54 C-22.64395561 47.44643834 -25.61664674 40.65446058 -26.25 31.3125 C-26.05305624 20.85478634 -21.47978059 13.38022991 -14.1875 6.25 C-10.18495347 3.42467304 -5.06646081 0 0 0 Z " fill="#010100" transform="translate(863,420)"/>
<path d="M0 0 C0.14695312 1.08667969 0.14695312 1.08667969 0.296875 2.1953125 C1.53611707 10.20765348 3.54796906 15.69724721 10.1953125 20.83984375 C18.08974136 25.91483373 26.83412347 26.99624407 36 28 C36.21914063 29.0621875 36.43828125 30.124375 36.6640625 31.21875 C39.08661015 42.28241522 42.08770665 49.89842417 51.66796875 56.62109375 C68.16790985 66.37734033 86.60948124 67.03870216 105 63 C100.67626712 73.26886559 93.94725066 77.86719227 84.125 82.73828125 C68.55790008 89.02349784 50.02158829 88.29923258 34.5625 82.1875 C24.96115004 77.73809392 17.47710867 71.42933332 13.5625 61.4375 C12.1416125 57.0962352 11.59667557 53.53739988 12 49 C11.18917969 48.97421875 10.37835937 48.9484375 9.54296875 48.921875 C-1.18191186 48.37252139 -10.41443155 46.587553 -18.33984375 38.90625 C-23.12525338 33.41147377 -24.81802409 28.11436664 -24.50390625 20.80859375 C-23.42024907 14.76867504 -20.43267595 10.06137278 -15.7734375 6.11328125 C-10.74091546 2.63764312 -6.22025341 0 0 0 Z " fill="#000000" transform="translate(730,124)"/>
<path d="M0 0 C0.94875 0.845625 1.8975 1.69125 2.875 2.5625 C20.33314283 17.38283199 43.17030176 28.04235761 66.3125 28.3125 C67.12912109 28.34150391 67.94574219 28.37050781 68.78710938 28.40039062 C75.9605061 28.47469673 81.15200927 26.56319166 86.5 21.75 C86.995 21.1725 87.49 20.595 88 20 C88.185625 20.88751953 88.185625 20.88751953 88.375 21.79296875 C89.53180557 26.22498007 90.5965225 29.27534798 94.5 31.875 C106.27886311 38.06425716 118.93727174 38.67250783 131.625 35.0625 C133.75266794 34.38330165 135.87810791 33.69703315 138 33 C139.32942482 32.65140489 140.66110312 32.3102322 142 32 C138.18068132 37.54417227 134.60563884 39.65287508 128 41 C126.68 41 125.36 41 124 41 C123.979375 42.03125 123.95875 43.0625 123.9375 44.125 C122.6724702 49.35378986 120.49857791 51.23533223 116 54 C104.2738746 59.94830917 90.58107461 60.27011286 78 57 C72.16271496 54.83366615 67.31795471 52.48183821 64 47 C63.67 46.01 63.34 45.02 63 44 C62.54109375 44.34933594 62.0821875 44.69867188 61.609375 45.05859375 C60.99578125 45.51363281 60.3821875 45.96867187 59.75 46.4375 C59.14671875 46.88996094 58.5434375 47.34242188 57.921875 47.80859375 C49.75764956 52.86974976 35.63678686 50.56130494 26.6875 48.5 C11.24977395 44.6225506 -3.13545075 38.38812099 -16 29 C-16.95003906 28.31421875 -17.90007812 27.6284375 -18.87890625 26.921875 C-19.57886719 26.28765625 -20.27882813 25.6534375 -21 25 C-21 24.01 -21 23.02 -21 22 C-20.40832031 21.68546875 -19.81664062 21.3709375 -19.20703125 21.046875 C-9.64582889 15.86854028 -3.61249874 10.50908725 0 0 Z " fill="#010100" transform="translate(1803,258)"/>
<path d="M0 0 C-0.23783203 0.82951172 -0.23783203 0.82951172 -0.48046875 1.67578125 C-2.57402777 11.04170316 -0.55751717 18.31193633 4.40234375 26.2421875 C12.88477396 38.22958275 28.36077003 47.66821248 42.5625 51.5 C50.93793741 52.82074205 60.91131533 53.84313174 68.4140625 49.2890625 C71.06347119 47.13560223 72.99285936 44.75981839 75 42 C80 44 80 44 82.28125 45.03125 C85.3565115 46.12703283 88.0599012 46.41054294 91.3125 46.625 C92.38113281 46.69976562 93.44976562 46.77453125 94.55078125 46.8515625 C95.35902344 46.90054688 96.16726563 46.94953125 97 47 C93.98164436 55.65871719 87.07472922 61.95413568 79 66 C73.07449996 68.76523335 65.91099055 69.10918256 59.6171875 67.32421875 C57.72888303 66.58910391 55.862508 65.79821772 54 65 C53.01 65 52.02 65 51 65 C50.278125 65.7425 49.55625 66.485 48.8125 67.25 C43.38719867 72.55473908 38.8842656 74.25232487 31.25 74.4375 C13.79355603 73.82596852 -2.5466003 66.210801 -15 54 C-22.48689984 45.86423551 -26.96664738 38.61248864 -26.74609375 27.2734375 C-25.57778259 22.14754877 -22.47834191 19.7624278 -18.59375 16.41796875 C-15.95351365 13.95666408 -14.54314563 11.79911044 -12.875 8.625 C-10.10355946 3.58889663 -6.14861181 0 0 0 Z " fill="#010100" transform="translate(269,330)"/>
<path d="M0 0 C2 1 2 1 3.125 3.25 C7.8840282 10.22990803 16.05415933 12.45172041 24 14 C28.38573382 14.37276719 32.72617296 14.37651087 37.125 14.3125 C38.24003906 14.31572266 39.35507813 14.31894531 40.50390625 14.32226562 C46.95759152 14.2804573 52.76822672 13.63191158 59 12 C62.42426683 11.44093603 64.14957783 11.47242328 67.109375 13.30859375 C69.5143972 15.08677506 71.88189463 16.88189463 74 19 C74.04063832 20.66617115 74.042721 22.33388095 74 24 C65.71323376 24.70226833 59.55695694 22.27039868 52 19 C51.80470703 20.15628906 51.80470703 20.15628906 51.60546875 21.3359375 C50.81592226 24.80994204 49.47807198 26.4549531 47 29 C42.18883639 32.0168069 38.26839277 32.28070081 32.75 32 C25.21843661 31.7928881 18.82978947 32.58510526 12 36 C-0.99696941 37.66908449 -12.92194086 32.75235318 -23 25 C-23.29390625 25.58007812 -23.5878125 26.16015625 -23.890625 26.7578125 C-28.75332565 35.2256188 -35.65818704 38.4040374 -44.8046875 41.13671875 C-57.18234436 44.04053765 -71.40564829 43.10902015 -82.3984375 36.57421875 C-86.24211771 33.88919305 -88.96680117 31.32054751 -91 27 C-91.38671875 27.5775 -91.7734375 28.155 -92.171875 28.75 C-92.69265625 29.4925 -93.2134375 30.235 -93.75 31 C-94.26046875 31.7425 -94.7709375 32.485 -95.296875 33.25 C-96.13992188 34.11625 -96.13992188 34.11625 -97 35 C-101 35 -101 35 -102.484375 33.5390625 C-102.90203125 32.90742188 -103.3196875 32.27578125 -103.75 31.625 C-104.17796875 30.99851562 -104.6059375 30.37203125 -105.046875 29.7265625 C-106 28 -106 28 -106 26 C-105.07960938 25.86464844 -104.15921875 25.72929687 -103.2109375 25.58984375 C-91.10297106 23.53074966 -79.06503097 20.09772894 -71.19921875 9.93359375 C-69.62506424 7.39546188 -68.65468256 4.90970026 -68 2 C-66 5 -66 5 -64.9375 7.8125 C-61.08012931 14.15849693 -54.13732841 17.66127001 -47.07421875 19.53515625 C-42.99765174 20.15156219 -38.99389578 20.28310032 -34.875 20.3125 C-34.1229126 20.31813965 -33.3708252 20.3237793 -32.59594727 20.32958984 C-24.99251142 20.23130904 -18.57750421 18.57444253 -11.75 15.1875 C-10.75484375 14.70667969 -9.7596875 14.22585938 -8.734375 13.73046875 C-4.61450308 11.12317838 -1.87812954 7.98205054 -0.75 3.1875 C-0.37875 1.6096875 -0.37875 1.6096875 0 0 Z " fill="#020200" transform="translate(1460,355)"/>
<path d="M0 0 C0.845625 0.78375 1.69125 1.5675 2.5625 2.375 C10.10490774 8.76719056 20.53124131 9.85592105 30 11 C30 11.33 30 11.66 30 12 C29.443125 12.13535156 28.88625 12.27070313 28.3125 12.41015625 C20.62467188 14.57885101 15.33614116 18.07426713 11.203125 25.01953125 C5.27516687 36.69196309 4.03421663 48.3532128 7.625 61.0625 C10.58800142 69.39009348 15.19304994 75.68609247 23 80 C26.2582888 81.31131626 26.2582888 81.31131626 29 82 C26.0098194 83.99345373 23.7967544 84.71048744 20.375 85.6875 C11.80919893 88.47708897 5.42790802 93.10677266 1 101 C-3.50517074 101 -5.86964186 99.59369163 -9.0625 96.625 C-18.52146223 86.58617802 -19.47270529 75.06633762 -19.2734375 62.0078125 C-18.90284922 52.1340198 -15.13012222 43.89521509 -8 37 C-5.11557534 35.03877496 -2.17715714 33.43368315 1 32 C0.0821875 31.82984375 -0.835625 31.6596875 -1.78125 31.484375 C-20.0998767 27.86683107 -20.0998767 27.86683107 -26 20 C-27.23188402 16.23548486 -27.42017499 13.06279555 -25.9375 9.3125 C-20.95726993 3.36835443 -16.37569304 0.98051017 -9 -1 C-8.071875 -1.268125 -7.14375 -1.53625 -6.1875 -1.8125 C-3.36201136 -2.05468474 -2.36137732 -1.57425155 0 0 Z " fill="#010100" transform="translate(863,255)"/>
<path d="M0 0 C-0.20496094 0.70125 -0.40992188 1.4025 -0.62109375 2.125 C-0.89050781 3.07375 -1.15992188 4.0225 -1.4375 5 C-1.70433594 5.928125 -1.97117187 6.85625 -2.24609375 7.8125 C-6.44947621 25.58431391 -4.53317795 43.24107319 5 59 C11.02422044 67.77030383 18.89356189 71.45268056 29 74 C29 74.33 29 74.66 29 75 C28.16190796 75.09704224 28.16190796 75.09704224 27.30688477 75.19604492 C12.6740918 76.40547337 12.6740918 76.40547337 0 83 C-2.24665001 85.87852032 -3.33752369 88.42262792 -4 92 C-10.15497038 91.05308148 -14.69039396 86.8369964 -18.48828125 82.171875 C-29.09400389 66.93471276 -31.49019906 49.13926584 -28.30859375 31.07421875 C-27.40378081 27.9130522 -26.33708132 25.00220433 -25 22 C-24.56429688 21.01644531 -24.12859375 20.03289062 -23.6796875 19.01953125 C-19.16389364 9.87689942 -13.25244385 4.53019875 -3.8828125 0.62890625 C-2 0 -2 0 0 0 Z " fill="#010100" transform="translate(404,361)"/>
<path d="M0 0 C0.33 0 0.66 0 1 0 C1.39314715 2.51916596 1.76475959 5.03859342 2.125 7.5625 C2.23714844 8.26697266 2.34929688 8.97144531 2.46484375 9.69726562 C3.15625875 14.69850083 2.51799423 18.12033856 1 23 C-0.18453322 37.81435698 1.86073754 52.39709824 11.78125 64.1015625 C16.78523121 68.92097063 22.41118928 71.05000271 29 73 C29 73.33 29 73.66 29 74 C28.01 74.17015625 27.02 74.3403125 26 74.515625 C13.79352151 76.633211 13.79352151 76.633211 3.5625 83.3125 C1.67616615 86.55699422 1.29137148 89.28501365 1 93 C-6.88222399 91.65834485 -12.071302 86.90069538 -16.80078125 80.6015625 C-23.64110888 69.84035228 -26.60861249 57.05894335 -24.0625 44.4375 C-23.85882812 43.55578125 -23.65515625 42.6740625 -23.4453125 41.765625 C-22.93903555 38.62137868 -23.17997267 35.85586659 -23.4375 32.6875 C-23.53629304 27.57660664 -23.53629304 27.57660664 -21.28515625 25.15625 C-18.91628204 23.63369154 -16.48074995 22.33075889 -14 21 C-6.25812779 15.24426255 -2.29668999 9.37815077 0 0 Z " fill="#020201" transform="translate(860,159)"/>
<path d="M0 0 C3.29523363 1.39846501 5.86378489 3.41871606 8.61694336 5.68115234 C22.54930808 17.12345271 38.49833574 26.5211334 57 27 C56.48473443 34.47135076 54.66098567 38.39814734 49.1875 43.75 C41.25057829 49.35253297 31.42113967 49.0958745 22.0703125 47.5 C19.31569709 46.79737346 16.67642185 45.95779599 14 45 C13.03449219 44.6596875 12.06898437 44.319375 11.07421875 43.96875 C-0.84698811 39.39199613 -11.75953731 31.78970842 -21 23 C-21.33 22.01 -21.66 21.02 -22 20 C-21.43152344 19.84144531 -20.86304688 19.68289063 -20.27734375 19.51953125 C-13.34778299 17.42562391 -8.02857825 15.43781181 -4.234375 9.0078125 C-2.7378558 6.03575335 -1.32822389 3.05053619 0 0 Z " fill="#010100" transform="translate(1321,497)"/>
<path d="M0 0 C1.0738133 3.2214399 0.97341251 5.25888431 0.8125 8.625 C0.76938751 17.5708413 3.95219464 23.7455015 10.03125 30.2109375 C16.81597369 36.37642054 24.05706274 37.98616447 33 39 C30.14329408 40.90447061 29.14328938 41.26127712 25.9375 41.75 C17.43387156 43.5504425 11.02488183 47.94741765 6.25390625 55.16796875 C4.99314042 57.01002225 3.62154933 58.47300165 2 60 C-9.35273683 56.32524432 -16.11681641 52.63708735 -22 42 C-25.35835299 35.13377831 -25.20343932 26.36976994 -23.1953125 19.078125 C-19.41695682 10.68756963 -12.89830266 4.92746397 -4.4375 1.5 C-2.9652085 0.98010407 -1.48825414 0.47226436 0 0 Z " fill="#010100" transform="translate(861,359)"/>
<path d="M0 0 C0.01417969 0.72703125 0.02835938 1.4540625 0.04296875 2.203125 C0.65617049 15.13008069 5.61612773 25.21296919 14 35 C14.99 35.66 15.98 36.32 17 37 C17 37.66 17 38.32 17 39 C16.35933594 39.27972656 15.71867187 39.55945313 15.05859375 39.84765625 C6.80174654 43.67460034 1.55013717 48.09713018 -3 56 C-3.66 56 -4.32 56 -5 56 C-6.04892238 54.36368108 -7.04906703 52.69514137 -8 51 C-8.495 50.505 -8.495 50.505 -9 50 C-10.8253125 50.0928125 -10.8253125 50.0928125 -12.6875 50.1875 C-14.86328125 49.94921875 -14.86328125 49.94921875 -17 49 C-22.71513102 41.29266645 -25.48914669 31.53836042 -25 22 C-26.98 22.33 -28.96 22.66 -31 23 C-30.01 12.605 -30.01 12.605 -29 2 C-27.35 2.33 -25.7 2.66 -24 3 C-15.48985929 3.60585439 -8.05538748 0 0 0 Z " fill="#020200" transform="translate(1372,236)"/>
<path d="M0 0 C0.29390625 0.87011719 0.29390625 0.87011719 0.59375 1.7578125 C3.3640513 8.99403056 7.14732882 12.80597313 14.203125 15.99609375 C18.84479741 17.69208944 23.32557055 18.40927748 28.25 18.69140625 C28.8275 18.79324219 29.405 18.89507812 30 19 C30.495 19.99 30.495 19.99 31 21 C30.07380859 21.22042969 30.07380859 21.22042969 29.12890625 21.4453125 C17.55741992 24.50990705 11.24107246 29.84571491 5 40 C-4.95425938 39.62787815 -13.10413274 37.61731011 -20.55078125 30.69140625 C-23.63772192 27.0885887 -25.06886505 23.49635814 -24.9375 18.734375 C-23.98763957 12.91647988 -21.4958635 8.78754365 -17 5 C-11.45921233 1.55402809 -6.56598404 -0.14591076 0 0 Z " fill="#010100" transform="translate(47,98)"/>
<path d="M0 0 C1.55773318 2.00865594 2.99582576 3.99292908 4.2890625 6.18359375 C7.81658473 12.13499821 11.52267856 15.47666087 18 18 C21.49471759 18.83026331 24.71325111 19.11863596 28.30078125 19.09765625 C29.27724609 19.09443359 30.25371094 19.09121094 31.25976562 19.08789062 C32.77086914 19.07532227 32.77086914 19.07532227 34.3125 19.0625 C35.33923828 19.05798828 36.36597656 19.05347656 37.42382812 19.04882812 C39.94927882 19.03708184 42.47460905 19.02065565 45 19 C42.77918091 26.6748895 38.45978821 31.1779767 31.5 35.03125 C19.7905003 41.12294143 7.79166736 43.23908981 -5.296875 40.24609375 C-9.76777385 38.51870101 -13.47213945 36.29266985 -17 33 C-15.86250085 29.58750256 -15.09887768 29.14830272 -12.3125 27.0625 C-4.17504122 20.1230154 -1.180336 10.33811532 0 0 Z " fill="#020201" transform="translate(964,491)"/>
<path d="M0 0 C1.07260253 1.60890379 2.13822145 3.22320896 3.15625 4.8671875 C7.4275844 11.24935576 12.71637639 14.38527557 20.01953125 16.6171875 C27.7148281 18.10464133 35.44968255 16.60767216 43 15 C40.87295423 23.1214475 36.24183837 27.29351112 29.3828125 31.6171875 C18.49051892 37.93828902 7.50799597 40.28479393 -5 38 C-11.81912707 36.16700345 -16.00694775 33.85647663 -20 28 C-19.33613281 27.76925781 -18.67226562 27.53851562 -17.98828125 27.30078125 C-11.36697555 24.8552479 -7.33637614 22.46129799 -3.3125 16.5 C-1.30958689 11.15889837 -0.71130059 5.64019529 0 0 Z " fill="#020200" transform="translate(1402,496)"/>
<path d="M0 0 C0.22042969 0.96099609 0.22042969 0.96099609 0.4453125 1.94140625 C2.03817901 8.08401216 3.81948329 13.0728341 9 17 C14.38320871 19.62751854 20.03299108 21.35491795 26 22 C26 22.33 26 22.66 26 23 C25.154375 23.15855469 24.30875 23.31710938 23.4375 23.48046875 C12.71611418 25.68566288 5.39498728 28.89630792 -1 38 C-1.69352633 39.31956184 -2.36782118 40.64997327 -3 42 C-10.05160338 41.74357806 -14.67030058 39.65824122 -20 35 C-23.64102896 30.71879013 -25.21834958 25.59390823 -25 20 C-24.07010665 13.11637389 -20.84113687 9.01063946 -15.55078125 4.6640625 C-10.78567573 1.55543317 -5.68122401 0 0 0 Z " fill="#020200" transform="translate(734,80)"/>
<path d="M0 0 C0.01417969 0.83402344 0.02835937 1.66804687 0.04296875 2.52734375 C0.59403989 15.52964385 5.80264274 23.1432856 15 32 C13.824375 31.7525 13.824375 31.7525 12.625 31.5 C3.3581417 30.22181265 -3.00051729 30.79228307 -11 36 C-12.9333316 37.58445973 -14.75802514 39.19596611 -16.52734375 40.9609375 C-17.01332031 41.30382812 -17.49929688 41.64671875 -18 42 C-18.99 41.67 -19.98 41.34 -21 41 C-24.61970413 33.76059175 -26.30070108 26.52797961 -24.421875 18.54296875 C-22.07236314 11.59054956 -18.21662859 6.91000622 -12 3 C-8.25144326 1.54847281 -4.08010138 0 0 0 Z " fill="#020200" transform="translate(346,144)"/>
<path d="M0 0 C0.70318359 -0.01611328 1.40636719 -0.03222656 2.13085938 -0.04882812 C6.68413724 -0.05309549 9.40191386 0.63105666 13.0625 3.3125 C14.03123047 3.94671875 14.03123047 3.94671875 15.01953125 4.59375 C15.93798828 5.19703125 15.93798828 5.19703125 16.875 5.8125 C20.78774916 8.27939518 24.68865436 9.82851666 29.0625 11.3125 C29.0625 11.6425 29.0625 11.9725 29.0625 12.3125 C28.19367188 12.41046875 27.32484375 12.5084375 26.4296875 12.609375 C16.89786248 13.84616661 11.51957737 16.04330231 5.38671875 23.49609375 C3.59610401 25.95224671 2.28197255 28.53481252 1.0625 31.3125 C-6.54057523 29.14019279 -11.24004314 25.48630044 -15.9375 19.3125 C-17.68201903 15.82346194 -17.51328672 12.11908999 -16.9375 8.3125 C-13.12447018 1.06774335 -7.59322569 -0.03460905 0 0 Z " fill="#030301" transform="translate(1584.9375,268.6875)"/>
<path d="M0 0 C0.71027344 0.29132813 1.42054688 0.58265625 2.15234375 0.8828125 C5.84758915 2.33252469 9.61001934 3.56058891 13.37890625 4.8046875 C16 6 16 6 18.12109375 8.140625 C18.74113281 8.75421875 19.36117188 9.3678125 20 10 C21.155 9.95875 22.31 9.9175 23.5 9.875 C25.2325 9.936875 25.2325 9.936875 27 10 C28.3440093 11.99284138 29.67541292 13.99419671 31 16 C33.48461925 17.51792136 36.00754516 18.72520834 38.66015625 19.921875 C41 21 41 21 44 23 C43.2265625 23.268125 42.453125 23.53625 41.65625 23.8125 C32.85003265 27.12573029 26.65817536 31.27527164 21.875 39.5 C20 42 20 42 17.25 42.6875 C12.828956 41.75227915 9.64923791 39.59336705 6 37 C6.2165625 36.34515625 6.433125 35.6903125 6.65625 35.015625 C9.1789676 26.74671731 11.13868892 17.79064709 7.3125 9.625 C5.24758505 6.08726041 2.73552145 3.03946828 0 0 Z " fill="#040401" transform="translate(385,318)"/>
<path d="M0 0 C0.804375 0.928125 1.60875 1.85625 2.4375 2.8125 C7.73903791 7.81950802 14.34561179 9.66864706 21.4375 10.8125 C21.4375 11.1425 21.4375 11.4725 21.4375 11.8125 C20.71046875 11.88726562 19.9834375 11.96203125 19.234375 12.0390625 C10.66241863 13.16001064 1.94324873 15.35488961 -4.390625 21.62109375 C-6.56943109 24.53242947 -7.80233189 27.2957627 -8.5625 30.8125 C-15.45976937 29.48023066 -19.91561842 27.55971594 -24.27734375 21.9296875 C-26.18178884 18.79227339 -26.69804773 16.47228869 -26.5625 12.8125 C-24.87736978 7.85623465 -22.01055838 4.51792079 -17.5625 1.8125 C-14.6194835 0.54141223 -11.65698853 -0.36378723 -8.5625 -1.1875 C-7.49 -1.5175 -6.4175 -1.8475 -5.3125 -2.1875 C-2.5625 -2.1875 -2.5625 -2.1875 0 0 Z " fill="#010100" transform="translate(55.5625,65.1875)"/>
<path d="M0 0 C0.515625 0.66 1.03125 1.32 1.5625 2 C2.366875 2.99 3.17125 3.98 4 5 C4.53238281 5.66257813 5.06476563 6.32515625 5.61328125 7.0078125 C10.95496121 13.42730372 16.02939316 15.92764222 24 18 C22.25794293 26.41994252 19.27636453 31.96251686 12 37 C5.17942475 39.50087759 -1.45607994 39.66610402 -8.34375 37.140625 C-12.00221203 35.41743636 -13.69864375 34.45203438 -16 31 C-15.46890625 30.63648438 -14.9378125 30.27296875 -14.390625 29.8984375 C-6.93354562 24.59139196 -3.14689931 18.88420833 -1 10 C-0.5172772 6.6719976 -0.20318551 3.35606417 0 0 Z " fill="#020200" transform="translate(1125,153)"/>
<path d="M0 0 C0.21914063 0.9178125 0.43828125 1.835625 0.6640625 2.78125 C2.61086704 10.31522528 4.70731766 16.1523305 10 22 C10.96111335 23.16437753 11.9196709 24.33087204 12.875 25.5 C13.57625 26.325 14.2775 27.15 15 28 C11.91662187 27.55951741 9.16323043 27.0630663 6.25 25.9375 C-1.02159436 23.8399247 -7.20411718 24.48917018 -13.94921875 27.84375 C-16.7532704 29.42470103 -19.38477482 31.12240243 -22 33 C-24.65573969 26.85860198 -25.07407048 20.20257106 -23.41796875 13.72265625 C-20.96782748 7.89378136 -16.58956691 4.70577761 -11 2 C-7.37736065 0.82995499 -3.81709335 0 0 0 Z " fill="#030301" transform="translate(398,57)"/>
<path d="M0 0 C0.23074219 0.94101563 0.46148437 1.88203125 0.69921875 2.8515625 C2.48033043 9.65217071 3.92345048 14.92345048 9 20 C9 20.66 9 21.32 9 22 C9.5775 22.2475 10.155 22.495 10.75 22.75 C13.3002997 24.16683317 15.01785701 25.87627537 17 28 C15.2675 27.2575 15.2675 27.2575 13.5 26.5 C5.70198021 23.90477947 -4.78696876 23.5014033 -12.625 26.25 C-15.96813693 27.98347841 -18.95590149 29.79302858 -22 32 C-24.66423863 26.08539024 -25.17480176 19.95828094 -23.3125 13.68359375 C-20.84426427 8.26375946 -17.34075727 4.4637947 -11.7890625 2.03125 C-7.7075809 0.56679813 -4.36133327 -0.14563327 0 0 Z " fill="#050402" transform="translate(373,101)"/>
<path d="M0 0 C0.07476563 0.61746094 0.14953125 1.23492187 0.2265625 1.87109375 C1.57374075 10.5485066 5.39151514 17.15403262 12 23 C11.1646875 22.84144531 10.329375 22.68289062 9.46875 22.51953125 C5.78023988 21.96708548 2.22877135 21.75949863 -1.5 21.6875 C-2.7684375 21.65011719 -4.036875 21.61273438 -5.34375 21.57421875 C-9.6247567 22.07275479 -11.68685466 23.29588873 -15 26 C-17.20914 29.31371 -17.22481553 30.3446021 -17.125 34.1875 C-17.10695313 35.08855469 -17.08890625 35.98960937 -17.0703125 36.91796875 C-17.04710937 37.60503906 -17.02390625 38.29210937 -17 39 C-22.5897051 34.16566045 -24.61012365 29.45319054 -25.4375 22.125 C-25.16131053 16.27898948 -23.19087714 10.57812661 -19.38671875 6.1015625 C-13.42108303 0.6782573 -7.84475264 -0.27050871 0 0 Z " fill="#030301" transform="translate(1610,228)"/>
<path d="M0 0 C0 3.81548936 -1.01149595 4.43607618 -3.5 7.25 C-7.04727062 11.54339884 -9.83076588 15.91768584 -12.4375 20.8125 C-12.77910156 21.44639648 -13.12070313 22.08029297 -13.47265625 22.73339844 C-16.34680025 28.26262059 -17.15551341 32.82687639 -17.25 39 C-17.27578125 40.010625 -17.3015625 41.02125 -17.328125 42.0625 C-16.95515405 45.40147806 -15.90673727 47.27035507 -14 50 C-14.886875 49.835 -15.77375 49.67 -16.6875 49.5 C-24.8325279 48.35538305 -33.22872324 48.10836214 -41 51 C-39.07699162 33.34571473 -21.56905071 17.24540731 -9 6 C-6.10377083 3.7790372 -3.18994349 1.77219083 0 0 Z " fill="#060502" transform="translate(1207,205)"/>
<path d="M0 0 C7.54668775 2.14183658 14.81825379 4.85108051 22 8 C21.29875 8.639375 20.5975 9.27875 19.875 9.9375 C16.28363177 13.49799687 13.69563035 17.74812946 11 22 C8.47519099 20.77851377 5.95537216 19.54814299 3.4375 18.3125 C2.73302734 17.97283203 2.02855469 17.63316406 1.30273438 17.28320312 C-4.52055262 14.41181276 -10.32412841 11.51380738 -14 6 C-14.3125 3.4375 -14.3125 3.4375 -14 1 C-9.36470552 -2.09019632 -5.3314702 -0.98707644 0 0 Z " fill="#010100" transform="translate(723,55)"/>
<path d="M0 0 C0.99 0.825 1.98 1.65 3 2.5 C9.30025963 6.55179741 16.82152393 5.39202843 24 5 C20.56821166 14.56590276 12.80903758 20.65232846 3.89453125 25.03515625 C-0.55158682 26.88412218 -4.20624678 27.29960958 -9 27 C-8.60167969 26.50371094 -8.20335937 26.00742187 -7.79296875 25.49609375 C-1.18410913 17.02195988 0.47412934 10.69425065 0 0 Z " fill="#050502" transform="translate(1469,476)"/>
<path d="M0 0 C2.64653131 0.30731987 5.292115 0.62059322 7.9375 0.9375 C8.69224609 1.02451172 9.44699219 1.11152344 10.22460938 1.20117188 C15.88671875 1.88671875 15.88671875 1.88671875 17 3 C16.64132468 10.05394795 14.88532874 14.02980865 9.875 19.1875 C5.51339133 21.93720981 -0.07460346 24.53954014 -5.30859375 23.57421875 C-5.86675781 23.38472656 -6.42492187 23.19523437 -7 23 C-6.38125 21.989375 -5.7625 20.97875 -5.125 19.9375 C-1.54038064 13.61691674 -0.61450413 7.13148218 0 0 Z " fill="#040401" transform="translate(195,488)"/>
<path d="M0 0 C2.248125 -0.103125 4.49625 -0.20625 6.8125 -0.3125 C8.70935547 -0.39951172 8.70935547 -0.39951172 10.64453125 -0.48828125 C14 0 14 0 15.9375 2.3359375 C17.36404884 5.91279892 17.40208307 7.38410155 16 11 C10.86604252 16.1217917 5.31073988 19 -2 19 C-1.34 12.73 -0.68 6.46 0 0 Z " fill="#010100" transform="translate(561,479)"/>
<path d="M0 0 C1.79093191 -0.08086147 3.58289628 -0.13912702 5.375 -0.1875 C6.87160156 -0.23970703 6.87160156 -0.23970703 8.3984375 -0.29296875 C9.25695313 -0.19628906 10.11546875 -0.09960938 11 0 C13.50031654 3.75047482 13.53603554 5.55856266 13 10 C9.94687864 13.95109823 6.59061365 16.10387697 2 18 C1.01 18 0.02 18 -1 18 C-0.83628906 17.48953125 -0.67257812 16.9790625 -0.50390625 16.453125 C0.16698481 13.18708172 0.0933456 10.0813253 0.0625 6.75 C0.05347656 5.48671875 0.04445313 4.2234375 0.03515625 2.921875 C0.02355469 1.95765625 0.01195312 0.9934375 0 0 Z " fill="#010100" transform="translate(1034,471)"/>
<path d="M0 0 C2 2 2 2 2.1953125 4.3828125 C2.13020833 6.921875 2.06510417 9.4609375 2 12 C-6.415 9.03 -6.415 9.03 -15 6 C-15 4.68 -15 3.36 -15 2 C-10.04248793 -2.78045807 -6.26366705 -2.20388285 0 0 Z " fill="#040401" transform="translate(770,33)"/>
<path d="M0 0 C3.3 0 6.6 0 10 0 C7.12398248 9.63465869 3.72077076 14.02577396 -5 19 C-6 17 -6 17 -5.29296875 14.86328125 C-4.74576172 13.60064453 -4.74576172 13.60064453 -4.1875 12.3125 C-2.47970707 8.24097983 -1.11356317 4.26865883 0 0 Z " fill="#090903" transform="translate(1090,187)"/>
<path d="M0 0 C-0.33 3.63 -0.66 7.26 -1 11 C-9.91 11.99 -9.91 11.99 -19 13 C-15.7382899 6.4765798 -10.44143711 3.8703475 -4 1 C-1 0 -1 0 0 0 Z " fill="#040400" transform="translate(87,32)"/>
<path d="M0 0 C0.66 0.33 1.32 0.66 2 1 C1.566875 1.72703125 1.566875 1.72703125 1.125 2.46875 C-1.72856297 7.62101647 -2.41931138 11.12964063 -2 17 C-3.79379098 16.55005243 -5.58498928 16.08975857 -7.375 15.625 C-8.37273437 15.36976563 -9.37046875 15.11453125 -10.3984375 14.8515625 C-13 14 -13 14 -15 12 C-10.20968493 7.61420043 -5.54110713 3.40991208 0 0 Z " fill="#060602" transform="translate(1648,195)"/>
<path d="M0 0 C-0.40208382 5.62917348 -2.28930302 8.00386479 -6 12 C-9.30286086 10.89904638 -9.78510901 10.3103981 -11.6875 7.5625 C-12.34298828 6.63630859 -12.34298828 6.63630859 -13.01171875 5.69140625 C-14 4 -14 4 -14 2 C-12.4176994 1.66179834 -10.83410625 1.32964061 -9.25 1 C-8.36828125 0.814375 -7.4865625 0.62875 -6.578125 0.4375 C-4 0 -4 0 0 0 Z " fill="#0B0A04" transform="translate(1368,379)"/>
<path d="M0 0 C1.06671952 3.20015856 0.94845472 4.88544294 0.5625 8.1875 C0.46066406 9.08855469 0.35882813 9.98960938 0.25390625 10.91796875 C0.17011719 11.60503906 0.08632813 12.29210938 0 13 C-4.23429756 11.68938409 -8.07407404 10.05643741 -12 8 C-11 5 -11 5 -9.2578125 3.8671875 C-8.55398438 3.53976563 -7.85015625 3.21234375 -7.125 2.875 C-6.42632812 2.54242188 -5.72765625 2.20984375 -5.0078125 1.8671875 C-3 1 -3 1 0 0 Z " fill="#090903" transform="translate(448,33)"/>
<path d="M0 0 C5.68502535 1.64566523 10.76681636 4.29032784 16 7 C16 7.33 16 7.66 16 8 C10.39 8.66 4.78 9.32 -1 10 C-1 3 -1 3 0 0 Z " fill="#090904" transform="translate(749,52)"/>
<path d="M0 0 C0 3.3 0 6.6 0 10 C-1.32 9.67 -2.64 9.34 -4 9 C-6.08234592 8.93256652 -8.16668557 8.91485528 -10.25 8.9375 C-11.32765625 8.94652344 -12.4053125 8.95554688 -13.515625 8.96484375 C-14.74539063 8.98224609 -14.74539063 8.98224609 -16 9 C-13.34847523 6.17331756 -10.83463573 4.11238913 -7.4375 2.25 C-6.67308594 1.82203125 -5.90867187 1.3940625 -5.12109375 0.953125 C-3 0 -3 0 0 0 Z " fill="#121207" transform="translate(1255,172)"/>
<path d="M0 0 C-0.76560456 1.2739902 -1.53772626 2.54406512 -2.3125 3.8125 C-2.74175781 4.52019531 -3.17101563 5.22789062 -3.61328125 5.95703125 C-4.93917732 7.91039363 -6.20243352 9.47230945 -8 11 C-8.66 11 -9.32 11 -10 11 C-10.48828125 9.01432292 -10.9765625 7.02864583 -11.46484375 5.04296875 C-11.91010705 3.34316798 -12.44433985 1.66698046 -13 0 C-11.39679026 -0.19551338 -9.79237014 -0.38111983 -8.1875 -0.5625 C-7.29417969 -0.66691406 -6.40085937 -0.77132813 -5.48046875 -0.87890625 C-3 -1 -3 -1 0 0 Z " fill="#0F0F06" transform="translate(1779,283)"/>
<path d="M0 0 C2.31 0 4.62 0 7 0 C7.17942163 3.94727588 7.09350689 6.5980513 5 10 C4.34 10 3.68 10 3 10 C0 3.375 0 3.375 0 0 Z " fill="#0A0A04" transform="translate(1168,130)"/>
<path d="M0 0 C-0.99 4.29 -1.98 8.58 -3 13 C-3.33 13 -3.66 13 -4 13 C-4.66 9.37 -5.32 5.74 -6 2 C-2 0 -2 0 0 0 Z " fill="#131205" transform="translate(1024,27)"/>
<path d="M0 0 C3.63 0 7.26 0 11 0 C11.33 1.32 11.66 2.64 12 4 C6.06 2.515 6.06 2.515 0 1 C0 0.67 0 0.34 0 0 Z " fill="#23230F" transform="translate(1039,246)"/>
<path d="M0 0 C-0.75 7.75 -0.75 7.75 -3 10 C-3.33 7.03 -3.66 4.06 -4 1 C-2 0 -2 0 0 0 Z " fill="#20200A" transform="translate(805,26)"/>
<path d="M0 0 C1.32 0.33 2.64 0.66 4 1 C3.67 3.97 3.34 6.94 3 10 C1.19669467 6.39338934 0.53400897 3.91606575 0 0 Z " fill="#0D0D05" transform="translate(902,28)"/>
<path d="M0 0 C0.99 0 1.98 0 3 0 C2.67 2.31 2.34 4.62 2 7 C1.34 7 0.68 7 0 7 C-0.38133299 5.0085944 -0.71325582 3.00720923 -1 1 C-0.67 0.67 -0.34 0.34 0 0 Z " fill="#090904" transform="translate(1102,29)"/>
<path d="M0 0 C2.97 0 5.94 0 9 0 C9 0.99 9 1.98 9 3 C4.545 2.01 4.545 2.01 0 1 C0 0.67 0 0.34 0 0 Z " fill="#0E0D05" transform="translate(209,446)"/>
</svg>
